<svg width="32" height="18" viewBox="0 0 32 18" fill="none" xmlns="http://www.w3.org/2000/svg">
<path d="M12.9258 7.94531L13.6992 8.10938V8.61328L11.707 9.15234L11.3906 8.97656L11.4023 8.15625L11.3672 8.14453C11.1406 8.50391 10.8945 8.75781 10.6289 8.90625C10.3711 9.04688 10.1016 9.11719 9.82031 9.11719C9.25781 9.11719 8.80078 8.94141 8.44922 8.58984C8.09766 8.23047 7.92188 7.69922 7.92188 6.99609V6C7.92188 5.82812 7.91797 5.66016 7.91016 5.49609C7.90234 5.33203 7.89062 5.16797 7.875 5.00391L7.07812 4.83984V4.3125L9.1875 3.78516L9.51562 3.98438C9.5 4.21875 9.48438 4.5 9.46875 4.82812C9.45312 5.15625 9.44531 5.49219 9.44531 5.83594L9.43359 6.82031C9.43359 7.22656 9.52344 7.52344 9.70312 7.71094C9.88281 7.89844 10.1289 7.99219 10.4414 7.99219C10.5977 7.99219 10.7578 7.94922 10.9219 7.86328C11.0938 7.77734 11.2383 7.63672 11.3555 7.44141V6.30469C11.3555 6.11719 11.3555 5.95312 11.3555 5.8125C11.3555 5.66406 11.3477 5.52734 11.332 5.40234C11.3242 5.26953 11.3125 5.13672 11.2969 5.00391L10.4648 4.83984V4.3125L12.5859 3.78516L12.9023 3.98438C12.8867 4.11719 12.875 4.26562 12.8672 4.42969C12.8672 4.59375 12.8633 4.78516 12.8555 5.00391C12.8555 5.21484 12.8555 5.45703 12.8555 5.73047V6.66797C12.8555 6.85547 12.8594 7.05859 12.8672 7.27734C12.8828 7.48828 12.9023 7.71094 12.9258 7.94531Z" fill="white"/>
<path d="M18.1992 8.01562C18.082 8.35156 17.8672 8.62109 17.5547 8.82422C17.25 9.01953 16.9062 9.11719 16.5234 9.11719C15.9844 9.11719 15.5391 8.96094 15.1875 8.64844C14.8438 8.32812 14.6719 7.85156 14.6719 7.21875L14.707 4.60547H13.8867V4.24219L15.8906 2.64844H16.2539L16.2305 4.30078L16.207 7.07812C16.207 7.40625 16.2852 7.64453 16.4414 7.79297C16.5977 7.93359 16.8164 8.00391 17.0977 8.00391C17.2461 8.00391 17.3906 7.97656 17.5312 7.92188C17.6719 7.85938 17.793 7.78125 17.8945 7.6875L18.1992 8.01562ZM15.6328 4.60547V3.86719H17.8711V4.60547H15.6328Z" fill="white"/>
<path d="M21.1758 9.09375C20.6289 9.09375 20.1484 8.98438 19.7344 8.76562C19.3203 8.53906 18.9961 8.23047 18.7617 7.83984C18.5273 7.44141 18.4102 6.98828 18.4102 6.48047C18.4102 5.90234 18.543 5.41016 18.8086 5.00391C19.0742 4.59766 19.4219 4.28906 19.8516 4.07812C20.2812 3.86719 20.7383 3.76172 21.2227 3.76172C21.7383 3.76172 22.1914 3.87109 22.582 4.08984C22.9805 4.30859 23.2891 4.61719 23.5078 5.01562C23.7344 5.40625 23.8477 5.85547 23.8477 6.36328C23.8477 6.87891 23.7266 7.34375 23.4844 7.75781C23.25 8.16406 22.9297 8.48828 22.5234 8.73047C22.1172 8.97266 21.668 9.09375 21.1758 9.09375ZM21.293 8.34375C21.4883 8.34375 21.6523 8.28125 21.7852 8.15625C21.9258 8.03125 22.0312 7.84766 22.1016 7.60547C22.1797 7.36328 22.2188 7.07422 22.2188 6.73828C22.2188 6.06641 22.1094 5.51953 21.8906 5.09766C21.6797 4.67578 21.3945 4.46484 21.0352 4.46484C20.7383 4.46484 20.5039 4.61719 20.332 4.92188C20.1602 5.21875 20.0742 5.625 20.0742 6.14062C20.0742 6.55469 20.125 6.92969 20.2266 7.26562C20.3359 7.60156 20.4805 7.86719 20.6602 8.0625C20.8477 8.25 21.0586 8.34375 21.293 8.34375Z" fill="white"/>
<path d="M11.6367 15.2617C11.1445 15.2617 10.6992 15.1562 10.3008 14.9453C9.91016 14.7266 9.59375 14.4258 9.35156 14.043C9.11719 13.6523 9 13.2109 9 12.7188C9 12.2266 9.125 11.7695 9.375 11.3477C9.625 10.918 9.96875 10.5742 10.4062 10.3164C10.8438 10.0586 11.3477 9.92969 11.918 9.92969C12.2617 9.92969 12.5703 9.97656 12.8438 10.0703C13.1172 10.1562 13.3359 10.2812 13.5 10.4453C13.6641 10.6094 13.7461 10.793 13.7461 10.9961C13.7461 11.1914 13.6836 11.3398 13.5586 11.4414C13.4414 11.5352 13.2969 11.582 13.125 11.582C12.9766 11.582 12.8438 11.5547 12.7266 11.5C12.6172 11.4453 12.4883 11.3555 12.3398 11.2305L11.4844 10.4805L12.082 10.6211C11.8555 10.5664 11.6289 10.5977 11.4023 10.7148C11.1836 10.832 11.0039 11.0273 10.8633 11.3008C10.7227 11.5664 10.6523 11.9023 10.6523 12.3086C10.6523 12.9102 10.7969 13.3633 11.0859 13.668C11.3828 13.9727 11.7461 14.125 12.1758 14.125C12.3945 14.125 12.6094 14.0781 12.8203 13.9844C13.0391 13.8828 13.25 13.7109 13.4531 13.4688L13.8281 13.8086C13.6094 14.2852 13.3008 14.6484 12.9023 14.8984C12.5117 15.1406 12.0898 15.2617 11.6367 15.2617Z" fill="white"/>
<path d="M14.2148 15.168L14.1797 14.6289L14.9062 14.4297C14.9141 14.3984 14.9219 14.3281 14.9297 14.2188C14.9375 14.1016 14.9453 13.9609 14.9531 13.7969C14.9609 13.625 14.9648 13.4453 14.9648 13.2578L14.9766 12.3789C14.9766 12.1445 14.9688 11.9375 14.9531 11.7578C14.9375 11.5703 14.9102 11.375 14.8711 11.1719L14.1211 11.0078V10.4805L16.1484 9.95312L16.4531 10.1523L16.4062 11.0781L16.4414 11.0898C16.668 10.6523 16.8945 10.3555 17.1211 10.1992C17.3555 10.043 17.5938 9.96484 17.8359 9.96484C18.0469 9.96484 18.2305 10.0234 18.3867 10.1406C18.5508 10.2578 18.6328 10.4414 18.6328 10.6914C18.6328 10.9414 18.5469 11.1367 18.375 11.2773C18.2031 11.418 18.0039 11.4883 17.7773 11.4883C17.5898 11.4883 17.4219 11.457 17.2734 11.3945C17.125 11.3242 16.9609 11.2031 16.7812 11.0312L17.1094 11.0664C16.9922 11.1523 16.8789 11.2617 16.7695 11.3945C16.6602 11.5273 16.5664 11.6797 16.4883 11.8516L16.5 12.7773C16.5078 13.0664 16.5117 13.3281 16.5117 13.5625C16.5195 13.7891 16.5273 13.9805 16.5352 14.1367C16.543 14.2852 16.5508 14.3828 16.5586 14.4297L17.5781 14.6055L17.543 15.168H14.2148Z" fill="white"/>
<path d="M21.6328 15.2617C21.0859 15.2617 20.6055 15.1523 20.1914 14.9336C19.7773 14.707 19.4531 14.3984 19.2188 14.0078C18.9844 13.6094 18.8672 13.1562 18.8672 12.6484C18.8672 12.0703 19 11.5781 19.2656 11.1719C19.5312 10.7656 19.8789 10.457 20.3086 10.2461C20.7383 10.0352 21.1953 9.92969 21.6797 9.92969C22.1953 9.92969 22.6484 10.0391 23.0391 10.2578C23.4375 10.4766 23.7461 10.7852 23.9648 11.1836C24.1914 11.5742 24.3047 12.0234 24.3047 12.5312C24.3047 13.0469 24.1836 13.5117 23.9414 13.9258C23.707 14.332 23.3867 14.6562 22.9805 14.8984C22.5742 15.1406 22.125 15.2617 21.6328 15.2617ZM21.75 14.5117C21.9453 14.5117 22.1094 14.4492 22.2422 14.3242C22.3828 14.1992 22.4883 14.0156 22.5586 13.7734C22.6367 13.5312 22.6758 13.2422 22.6758 12.9062C22.6758 12.2344 22.5664 11.6875 22.3477 11.2656C22.1367 10.8438 21.8516 10.6328 21.4922 10.6328C21.1953 10.6328 20.9609 10.7852 20.7891 11.0898C20.6172 11.3867 20.5312 11.793 20.5312 12.3086C20.5312 12.7227 20.582 13.0977 20.6836 13.4336C20.793 13.7695 20.9375 14.0352 21.1172 14.2305C21.3047 14.418 21.5156 14.5117 21.75 14.5117Z" fill="white"/>
<path d="M24.9023 15.168L24.8672 14.6172L25.6289 14.4297C25.6367 14.3438 25.6445 14.1953 25.6523 13.9844C25.668 13.7656 25.6797 13.5156 25.6875 13.2344C25.6953 12.9531 25.6992 12.6797 25.6992 12.4141V10.9375C25.6992 10.6641 25.6953 10.3945 25.6875 10.1289C25.6875 9.85547 25.6836 9.59766 25.6758 9.35547C25.6758 9.10547 25.6719 8.88281 25.6641 8.6875C25.6562 8.48438 25.6445 8.32031 25.6289 8.19531L24.7617 8.07812L24.7383 7.57422L26.9766 7L27.3047 7.19922C27.2891 7.52734 27.2734 7.84766 27.2578 8.16016C27.25 8.46484 27.2461 8.8125 27.2461 9.20312C27.2461 9.59375 27.2422 10.0703 27.2344 10.6328L27.2227 12.3555C27.2227 12.9023 27.2266 13.3672 27.2344 13.75C27.25 14.125 27.2656 14.3516 27.2812 14.4297L28.043 14.6172L28.0195 15.168H24.9023Z" fill="white"/>
<path d="M28.3945 15.168L28.3594 14.6172L29.1211 14.4297C29.1289 14.3438 29.1367 14.1953 29.1445 13.9844C29.1602 13.7656 29.1719 13.5156 29.1797 13.2344C29.1875 12.9531 29.1914 12.6797 29.1914 12.4141V10.9375C29.1914 10.6641 29.1875 10.3945 29.1797 10.1289C29.1797 9.85547 29.1758 9.59766 29.168 9.35547C29.168 9.10547 29.1641 8.88281 29.1562 8.6875C29.1484 8.48438 29.1367 8.32031 29.1211 8.19531L28.2539 8.07812L28.2305 7.57422L30.4688 7L30.7969 7.19922C30.7812 7.52734 30.7656 7.84766 30.75 8.16016C30.7422 8.46484 30.7383 8.8125 30.7383 9.20312C30.7383 9.59375 30.7344 10.0703 30.7266 10.6328L30.7148 12.3555C30.7148 12.9023 30.7188 13.3672 30.7266 13.75C30.7422 14.125 30.7578 14.3516 30.7734 14.4297L31.5352 14.6172L31.5117 15.168H28.3945Z" fill="white"/>
<path d="M0.0363881 8.52901L0 7.82414L0.630728 7.59858L3.09299 0.662585L4.09973 0L6.90162 7.59858L7.52021 7.82414L7.48383 8.52901H4.25741L4.20889 7.82414L4.98517 7.59858L4.33019 5.77999L4.19677 5.30068L2.98383 1.95956L3.33558 2.07234L2.32884 5.25838L2.20755 5.68131L1.63747 7.59858L2.41375 7.82414L2.37736 8.52901H0.0363881ZM1.92857 6.13243V5.1738C2.08221 5.1832 2.26011 5.19729 2.46226 5.21609C2.67251 5.22549 2.94744 5.23019 3.28706 5.23019C3.61051 5.23019 3.87736 5.22549 4.0876 5.21609C4.30593 5.19729 4.49191 5.1832 4.64555 5.1738V6.11833C4.49191 6.11833 4.30593 6.11363 4.0876 6.10424C3.86927 6.09484 3.60243 6.09014 3.28706 6.09014C2.95553 6.09014 2.68464 6.09484 2.47439 6.10424C2.26415 6.11363 2.08221 6.12303 1.92857 6.13243Z" fill="white"/>
<path d="M5.95553 18C5.6159 18 5.23989 17.9436 4.82749 17.8308C4.42318 17.718 4.07547 17.5677 3.78437 17.3797L3.72372 15.2933L4.5 15.2369L4.9124 16.6889C5.07413 16.8111 5.26415 16.9098 5.48248 16.985C5.7089 17.0508 5.92318 17.0837 6.12534 17.0837C6.48922 17.0837 6.76415 16.9944 6.95014 16.8158C7.14421 16.6372 7.24124 16.3976 7.24124 16.0968C7.24124 15.7679 7.15633 15.5047 6.98652 15.3074C6.8248 15.11 6.61051 14.9408 6.34367 14.7999C6.07682 14.6589 5.7938 14.5226 5.49461 14.391C5.19542 14.2501 4.9124 14.0856 4.64555 13.8976C4.37871 13.7002 4.16038 13.4512 3.99057 13.1504C3.82884 12.8403 3.74798 12.4503 3.74798 11.9803C3.74798 11.4728 3.86927 11.0311 4.11186 10.6552C4.36253 10.2698 4.71024 9.9738 5.15499 9.76703C5.60782 9.55087 6.12938 9.44279 6.71968 9.44279C6.90566 9.44279 7.10377 9.45689 7.31402 9.48508C7.53235 9.51328 7.74259 9.56027 7.94474 9.62606C8.1469 9.68245 8.3248 9.74824 8.47844 9.82342L8.61186 11.8817L7.84771 11.9381L7.45957 10.5565C7.2089 10.4061 6.92183 10.3309 6.59838 10.3309C6.26685 10.3309 5.99191 10.4296 5.77359 10.627C5.56334 10.815 5.45822 11.0828 5.45822 11.4305C5.45822 11.7407 5.54313 11.9991 5.71294 12.2059C5.88275 12.4033 6.10108 12.5771 6.36793 12.7275C6.63477 12.8685 6.91779 13.0095 7.21698 13.1504C7.52426 13.2914 7.81132 13.4606 8.07817 13.658C8.3531 13.8459 8.57547 14.0856 8.74528 14.3769C8.91509 14.6683 9 15.0395 9 15.4906C9 15.97 8.87062 16.4023 8.61186 16.7876C8.36119 17.1635 8.00539 17.4596 7.54448 17.6758C7.09165 17.8919 6.56199 18 5.95553 18Z" fill="white"/>
</svg>
