<svg width="173" height="70" viewBox="0 0 173 70" fill="none" xmlns="http://www.w3.org/2000/svg">
<path d="M16 0.5H171C171.828 0.5 172.5 1.17157 172.5 2V52C172.5 52.8284 171.828 53.5 171 53.5H24.111C23.6132 53.5 23.1267 53.6486 22.7139 53.9268L7.51699 64.1682C6.19314 65.0604 4.57698 63.5418 5.38508 62.165L14.156 47.2219C14.3813 46.8382 14.5 46.4013 14.5 45.9564V2C14.5 1.17157 15.1716 0.5 16 0.5Z" fill="white" stroke="black"/>
<path d="M23.0166 22L22.9834 21.3027L23.8135 21.0703L27.2168 12.6035L28.3125 11.9561L31.9814 21.0703L32.8281 21.3027L32.7783 22H29.0928L29.043 21.3027L30.0723 21.0703L29.126 18.6963L28.9434 18.165L27.167 13.8486L27.582 13.7324L25.9717 18.165L25.7891 18.6631L24.9424 21.0703L25.9717 21.3027L25.9385 22H23.0166ZM25.4404 19.0117V18.0488C25.6507 18.0599 25.9219 18.071 26.2539 18.082C26.597 18.0931 27.0176 18.0986 27.5156 18.0986C28.0137 18.0986 28.4342 18.0931 28.7773 18.082C29.1204 18.071 29.3916 18.0599 29.5908 18.0488V18.9951C29.2699 18.9951 28.9378 18.9896 28.5947 18.9785C28.2516 18.9674 27.8919 18.9619 27.5156 18.9619C27.1504 18.9619 26.8018 18.9674 26.4697 18.9785C26.1377 18.9896 25.7946 19.0007 25.4404 19.0117Z" fill="black"/>
<path d="M40.415 20.7217L41.4775 20.9873V21.585L39.1035 22.1826L38.8047 21.9668L38.8213 20.8877L38.7715 20.8711C38.4505 21.347 38.113 21.679 37.7588 21.8672C37.4157 22.0443 37.0505 22.1328 36.6631 22.1328C35.8994 22.1328 35.2686 21.9004 34.7705 21.4355C34.2725 20.9596 34.0234 20.2513 34.0234 19.3105V17.8828C34.0234 17.6172 34.0124 17.346 33.9902 17.0693C33.9792 16.7926 33.9626 16.5104 33.9404 16.2227L32.8115 15.9902V15.376L35.3184 14.7119L35.667 14.9941C35.6449 15.3262 35.6227 15.7025 35.6006 16.123C35.5895 16.5326 35.584 16.9587 35.584 17.4014L35.5674 19.0947C35.5674 19.7367 35.7168 20.2015 36.0156 20.4893C36.3145 20.777 36.7074 20.9209 37.1943 20.9209C37.46 20.9209 37.7367 20.849 38.0244 20.7051C38.3122 20.5501 38.5612 20.3011 38.7715 19.958V18.1152C38.7715 17.8717 38.766 17.6393 38.7549 17.418C38.7549 17.1855 38.7493 16.9697 38.7383 16.7705C38.7272 16.5602 38.7106 16.3776 38.6885 16.2227L37.4766 15.9902V15.376L40.0332 14.7119L40.3486 14.9609C40.3376 15.2376 40.3265 15.4977 40.3154 15.7412C40.3154 15.9847 40.3154 16.2393 40.3154 16.5049C40.3154 16.7594 40.3154 17.0417 40.3154 17.3516V18.5801C40.3154 19.0781 40.3265 19.5098 40.3486 19.875C40.3708 20.2402 40.3929 20.5225 40.415 20.7217Z" fill="black"/>
<path d="M47.6865 20.8545C47.4873 21.2529 47.194 21.5684 46.8066 21.8008C46.4193 22.0221 46.0042 22.1328 45.5615 22.1328C44.8643 22.1328 44.2887 21.9281 43.835 21.5186C43.3812 21.098 43.1543 20.4616 43.1543 19.6094L43.2041 15.7246H42.042V15.3262L44.3828 13.2842H44.7812L44.748 15.3262L44.7314 19.377C44.7314 19.9082 44.8477 20.3011 45.0801 20.5557C45.3236 20.8102 45.6667 20.9375 46.1094 20.9375C46.3418 20.9375 46.5632 20.8932 46.7734 20.8047C46.9948 20.7051 47.1885 20.5778 47.3545 20.4229L47.6865 20.8545ZM44.0342 15.7246V14.8281H47.2051V15.7246H44.0342Z" fill="black"/>
<path d="M51.7871 22.1328C51.0456 22.1328 50.3981 21.9779 49.8447 21.668C49.3024 21.3581 48.8763 20.9264 48.5664 20.373C48.2565 19.8086 48.1016 19.1667 48.1016 18.4473C48.1016 17.6725 48.2731 17.0085 48.6162 16.4551C48.9593 15.8906 49.4131 15.4535 49.9775 15.1436C50.5531 14.8337 51.1784 14.6787 51.8535 14.6787C52.5508 14.6787 53.165 14.8337 53.6963 15.1436C54.2275 15.4535 54.637 15.8851 54.9248 16.4385C55.2126 16.9808 55.3564 17.6172 55.3564 18.3477C55.3564 19.056 55.196 19.6979 54.875 20.2734C54.5651 20.8379 54.139 21.2917 53.5967 21.6348C53.0544 21.9668 52.4512 22.1328 51.7871 22.1328ZM51.9531 21.2695C52.2962 21.2695 52.5895 21.1644 52.833 20.9541C53.0876 20.7438 53.2812 20.445 53.4141 20.0576C53.5579 19.6702 53.6299 19.222 53.6299 18.7129C53.6299 17.7611 53.4473 16.9919 53.082 16.4053C52.7279 15.8076 52.2464 15.5088 51.6377 15.5088C51.1064 15.5088 50.6748 15.7467 50.3428 16.2227C50.0218 16.6986 49.8613 17.3294 49.8613 18.1152C49.8613 18.724 49.9499 19.2663 50.127 19.7422C50.304 20.2181 50.5531 20.5944 50.874 20.8711C51.195 21.1367 51.5547 21.2695 51.9531 21.2695Z" fill="black"/>
<path d="M62.4619 22.1328C62.0413 22.1328 61.6152 22.0885 61.1836 22C60.763 21.9004 60.4033 21.7676 60.1045 21.6016L60.0215 19.7754H60.918L61.2666 20.9707C61.654 21.2253 62.0911 21.3525 62.5781 21.3525C62.9434 21.3525 63.2311 21.2695 63.4414 21.1035C63.6628 20.9375 63.7734 20.7106 63.7734 20.4229C63.7734 20.1462 63.6683 19.9082 63.458 19.709C63.2588 19.4987 62.8548 19.2718 62.2461 19.0283C61.4492 18.7074 60.8903 18.3809 60.5693 18.0488C60.2484 17.7168 60.0879 17.2962 60.0879 16.7871C60.0879 16.3776 60.2152 16.0179 60.4697 15.708C60.7243 15.387 61.0729 15.138 61.5156 14.9609C61.9583 14.7728 62.473 14.6787 63.0596 14.6787C63.3805 14.6787 63.707 14.7119 64.0391 14.7783C64.3711 14.8337 64.6478 14.9111 64.8691 15.0107L65.0518 16.7871H64.1885L63.8066 15.6416C63.696 15.5752 63.5632 15.5254 63.4082 15.4922C63.2533 15.4479 63.0928 15.4258 62.9268 15.4258C62.5505 15.4258 62.2461 15.5143 62.0137 15.6914C61.7923 15.8685 61.6816 16.0898 61.6816 16.3555C61.6816 16.6654 61.8089 16.9199 62.0635 17.1191C62.318 17.3073 62.7663 17.5452 63.4082 17.833C64.1387 18.154 64.6478 18.4805 64.9355 18.8125C65.2344 19.1335 65.3838 19.5319 65.3838 20.0078C65.3838 20.6387 65.1071 21.1533 64.5537 21.5518C64.0114 21.9391 63.3141 22.1328 62.4619 22.1328Z" fill="black"/>
<path d="M70.1152 22.1328C69.4622 22.1328 68.8701 21.9889 68.3389 21.7012C67.8076 21.4134 67.3815 20.9984 67.0605 20.4561C66.7507 19.9137 66.5957 19.2829 66.5957 18.5635C66.5957 17.8441 66.7617 17.1911 67.0938 16.6045C67.4258 16.0179 67.8851 15.5531 68.4717 15.21C69.0583 14.8558 69.7223 14.6787 70.4639 14.6787C70.9508 14.6787 71.3659 14.7451 71.709 14.8779C72.0632 14.9997 72.3343 15.1657 72.5225 15.376C72.7106 15.5863 72.8047 15.8076 72.8047 16.04C72.8047 16.2503 72.7383 16.4219 72.6055 16.5547C72.4837 16.6764 72.3177 16.7373 72.1074 16.7373C71.9193 16.7373 71.7533 16.7041 71.6094 16.6377C71.4655 16.5602 71.2995 16.4274 71.1113 16.2393L70.1484 15.3096L70.8125 15.4922C70.4141 15.4036 70.0212 15.4479 69.6338 15.625C69.2575 15.8021 68.9476 16.1064 68.7041 16.5381C68.4606 16.9587 68.3389 17.501 68.3389 18.165C68.3389 19.0394 68.5547 19.709 68.9863 20.1738C69.429 20.6387 69.9769 20.8711 70.6299 20.8711C71.0173 20.8711 71.3604 20.7992 71.6592 20.6553C71.9691 20.5003 72.2679 20.2513 72.5557 19.9082L73.0205 20.3066C72.7106 20.9154 72.3011 21.3747 71.792 21.6846C71.2939 21.9834 70.735 22.1328 70.1152 22.1328Z" fill="black"/>
<path d="M73.6514 22L73.6016 21.3525L74.6309 21.0869C74.6419 21.0426 74.653 20.9486 74.6641 20.8047C74.6751 20.6608 74.6862 20.4671 74.6973 20.2236C74.7083 19.9801 74.7139 19.6924 74.7139 19.3604L74.7305 18.082C74.7305 17.7168 74.7139 17.3737 74.6807 17.0527C74.6585 16.7318 74.6253 16.4551 74.5811 16.2227L73.5186 15.9902V15.376L75.959 14.7119L76.2578 14.9609L76.1914 16.3223L76.2412 16.3389C76.5622 15.708 76.8887 15.2819 77.2207 15.0605C77.5638 14.8392 77.8958 14.7285 78.2168 14.7285C78.4824 14.7285 78.7093 14.8005 78.8975 14.9443C79.0856 15.0771 79.1797 15.2874 79.1797 15.5752C79.1797 15.863 79.0801 16.0843 78.8809 16.2393C78.6816 16.3942 78.4326 16.4717 78.1338 16.4717C77.9124 16.4717 77.7077 16.4274 77.5195 16.3389C77.3314 16.2503 77.1432 16.1175 76.9551 15.9404L77.2871 16.0234C77.099 16.1562 76.9163 16.3333 76.7393 16.5547C76.5622 16.776 76.4017 17.0472 76.2578 17.3682L76.2744 18.8291C76.2855 19.1501 76.2965 19.4655 76.3076 19.7754C76.3187 20.0742 76.3298 20.3398 76.3408 20.5723C76.3519 20.8047 76.363 20.9762 76.374 21.0869L77.8184 21.3193L77.7686 22H73.6514Z" fill="black"/>
<path d="M83.4131 22.1328C82.6715 22.1328 82.0241 21.9779 81.4707 21.668C80.9284 21.3581 80.5023 20.9264 80.1924 20.373C79.8825 19.8086 79.7275 19.1667 79.7275 18.4473C79.7275 17.6725 79.8991 17.0085 80.2422 16.4551C80.5853 15.8906 81.0391 15.4535 81.6035 15.1436C82.179 14.8337 82.8044 14.6787 83.4795 14.6787C84.1768 14.6787 84.791 14.8337 85.3223 15.1436C85.8535 15.4535 86.263 15.8851 86.5508 16.4385C86.8385 16.9808 86.9824 17.6172 86.9824 18.3477C86.9824 19.056 86.8219 19.6979 86.501 20.2734C86.1911 20.8379 85.765 21.2917 85.2227 21.6348C84.6803 21.9668 84.0771 22.1328 83.4131 22.1328ZM83.5791 21.2695C83.9222 21.2695 84.2155 21.1644 84.459 20.9541C84.7135 20.7438 84.9072 20.445 85.04 20.0576C85.1839 19.6702 85.2559 19.222 85.2559 18.7129C85.2559 17.7611 85.0732 16.9919 84.708 16.4053C84.3538 15.8076 83.8724 15.5088 83.2637 15.5088C82.7324 15.5088 82.3008 15.7467 81.9688 16.2227C81.6478 16.6986 81.4873 17.3294 81.4873 18.1152C81.4873 18.724 81.5758 19.2663 81.7529 19.7422C81.93 20.2181 82.179 20.5944 82.5 20.8711C82.821 21.1367 83.1807 21.2695 83.5791 21.2695Z" fill="black"/>
<path d="M88.0449 22L87.9951 21.3359L89.0742 21.0869C89.0964 20.9873 89.113 20.8047 89.124 20.5391C89.1351 20.2624 89.1462 19.9137 89.1572 19.4932C89.1683 19.0726 89.1738 18.5967 89.1738 18.0654V15.9736C89.1738 15.5752 89.1683 15.1657 89.1572 14.7451C89.1572 14.3135 89.1517 13.9095 89.1406 13.5332C89.1406 13.1569 89.1351 12.8304 89.124 12.5537C89.113 12.266 89.1019 12.0612 89.0908 11.9395L87.8623 11.7734L87.8291 11.1758L90.4521 10.4619L90.8174 10.7109C90.8063 11.1758 90.7952 11.6406 90.7842 12.1055C90.7731 12.5592 90.762 13.0684 90.751 13.6328C90.751 14.1862 90.751 14.8613 90.751 15.6582L90.7344 18.248C90.7344 18.9453 90.7399 19.5651 90.751 20.1074C90.7731 20.6387 90.7952 20.9652 90.8174 21.0869L91.8965 21.3359L91.8633 22H88.0449Z" fill="black"/>
<path d="M92.6436 22L92.5938 21.3359L93.6729 21.0869C93.695 20.9873 93.7116 20.8047 93.7227 20.5391C93.7337 20.2624 93.7448 19.9137 93.7559 19.4932C93.7669 19.0726 93.7725 18.5967 93.7725 18.0654V15.9736C93.7725 15.5752 93.7669 15.1657 93.7559 14.7451C93.7559 14.3135 93.7503 13.9095 93.7393 13.5332C93.7393 13.1569 93.7337 12.8304 93.7227 12.5537C93.7116 12.266 93.7005 12.0612 93.6895 11.9395L92.4609 11.7734L92.4277 11.1758L95.0508 10.4619L95.416 10.7109C95.4049 11.1758 95.3939 11.6406 95.3828 12.1055C95.3717 12.5592 95.3607 13.0684 95.3496 13.6328C95.3496 14.1862 95.3496 14.8613 95.3496 15.6582L95.333 18.248C95.333 18.9453 95.3385 19.5651 95.3496 20.1074C95.3717 20.6387 95.3939 20.9652 95.416 21.0869L96.4951 21.3359L96.4619 22H92.6436Z" fill="black"/>
<path d="M100.513 22L100.463 21.3525L101.492 21.0869C101.503 21.0316 101.514 20.9375 101.525 20.8047C101.536 20.6719 101.548 20.4893 101.559 20.2568C101.57 20.0133 101.575 19.7145 101.575 19.3604L101.592 18.082C101.592 17.8496 101.586 17.6227 101.575 17.4014C101.564 17.1689 101.548 16.9531 101.525 16.7539C101.503 16.5436 101.476 16.3665 101.442 16.2227L100.38 15.9902V15.376L102.837 14.7119L103.169 14.9941L103.086 15.9072L103.136 15.9238C103.479 15.4811 103.839 15.1657 104.215 14.9775C104.591 14.7783 104.979 14.6787 105.377 14.6787C105.775 14.6787 106.157 14.7894 106.522 15.0107C106.899 15.221 107.203 15.542 107.436 15.9736C107.668 16.4053 107.784 16.9587 107.784 17.6338L107.817 19.377C107.817 19.7643 107.823 20.1185 107.834 20.4395C107.845 20.7604 107.867 20.9762 107.9 21.0869L108.88 21.3525L108.83 22H105.36L105.311 21.3525L106.207 21.0869C106.218 20.9984 106.229 20.8822 106.24 20.7383C106.251 20.5833 106.257 20.4007 106.257 20.1904C106.268 19.9801 106.273 19.7367 106.273 19.46L106.257 17.7168C106.257 17.2741 106.185 16.9199 106.041 16.6543C105.908 16.3776 105.726 16.1784 105.493 16.0566C105.272 15.9349 105.028 15.874 104.763 15.874C104.453 15.874 104.154 15.9515 103.866 16.1064C103.578 16.2503 103.329 16.4772 103.119 16.7871V19.2607C103.119 19.7256 103.125 20.124 103.136 20.4561C103.158 20.777 103.186 20.9873 103.219 21.0869L104.182 21.3525L104.132 22H100.513ZM109.992 22L109.942 21.3525L110.855 21.0869C110.878 20.9984 110.889 20.8822 110.889 20.7383C110.9 20.5833 110.911 20.4007 110.922 20.1904C110.933 19.9801 110.938 19.7367 110.938 19.46L110.922 17.7832C110.922 17.3184 110.844 16.9476 110.689 16.6709C110.546 16.3942 110.352 16.195 110.108 16.0732C109.876 15.9404 109.632 15.874 109.378 15.874C109.035 15.874 108.714 15.957 108.415 16.123C108.116 16.278 107.856 16.527 107.635 16.8701L107.27 16.2393C107.657 15.7191 108.066 15.3317 108.498 15.0771C108.941 14.8115 109.411 14.6787 109.909 14.6787C110.396 14.6787 110.833 14.7949 111.221 15.0273C111.608 15.2598 111.907 15.5918 112.117 16.0234C112.339 16.444 112.449 16.9531 112.449 17.5508L112.466 19.377C112.466 19.7643 112.471 20.1185 112.482 20.4395C112.505 20.7604 112.527 20.9762 112.549 21.0869L113.578 21.3525L113.545 22H109.992Z" fill="black"/>
<path d="M117.114 22.1328C116.649 22.1328 116.24 22.0387 115.886 21.8506C115.532 21.6514 115.26 21.4079 115.072 21.1201C114.884 20.8324 114.79 20.5446 114.79 20.2568C114.79 19.8805 114.912 19.5651 115.155 19.3105C115.399 19.056 115.792 18.8457 116.334 18.6797L118.891 17.8496V17.0859C118.891 16.8203 118.808 16.5824 118.642 16.3721C118.487 16.1507 118.276 15.9736 118.011 15.8408C117.745 15.708 117.452 15.6416 117.131 15.6416C116.876 15.6416 116.705 15.6969 116.616 15.8076C116.528 15.9072 116.472 16.112 116.45 16.4219L116.4 17.2188C115.958 17.3184 115.581 17.3073 115.271 17.1855C114.973 17.0527 114.823 16.8369 114.823 16.5381C114.823 16.3499 114.912 16.1562 115.089 15.957C115.277 15.7578 115.509 15.5697 115.786 15.3926C116.074 15.2155 116.378 15.0661 116.699 14.9443C117.02 14.8115 117.325 14.723 117.612 14.6787C118.487 14.6787 119.178 14.9001 119.688 15.3428C120.208 15.7744 120.473 16.3499 120.484 17.0693L120.451 19.709C120.451 19.9414 120.457 20.1572 120.468 20.3564C120.49 20.5446 120.518 20.6885 120.551 20.7881L121.63 20.9873V21.5684L120.733 21.917C120.567 21.9834 120.412 22.0332 120.269 22.0664C120.125 22.1107 119.997 22.1328 119.887 22.1328C119.521 22.1328 119.272 21.9336 119.14 21.5352L118.924 20.8379L119.206 20.8711C118.852 21.2806 118.503 21.596 118.16 21.8174C117.817 22.0277 117.468 22.1328 117.114 22.1328ZM117.695 20.9873C117.917 20.9873 118.127 20.9375 118.326 20.8379C118.525 20.7383 118.714 20.5889 118.891 20.3896V18.6797L117.264 19.0781C116.998 19.1445 116.804 19.2497 116.683 19.3936C116.572 19.5264 116.517 19.7035 116.517 19.9248C116.517 20.2015 116.633 20.4505 116.865 20.6719C117.098 20.8822 117.374 20.9873 117.695 20.9873Z" fill="black"/>
<path d="M125.465 22.0664L122.51 15.7246L121.729 15.459L121.779 14.8115H125.315L125.349 15.459L124.319 15.7246L126.461 20.4561L125.465 22.0664ZM129.831 14.8115L129.881 15.459L129.101 15.7246L126.262 21.585L124.95 24.3408C124.685 24.8831 124.408 25.2594 124.12 25.4697C123.843 25.68 123.528 25.7852 123.174 25.7852C122.864 25.7852 122.615 25.7077 122.427 25.5527C122.25 25.4089 122.161 25.2262 122.161 25.0049C122.161 24.8057 122.233 24.623 122.377 24.457C122.532 24.3021 122.77 24.1803 123.091 24.0918L124.751 23.5938L123.888 24.4072L125.78 20.8047L125.963 20.4727L128.005 15.7246L126.976 15.459L127.025 14.8115H129.831Z" fill="black"/>
<path d="M133.434 22L133.384 21.3525L134.413 21.0869C134.424 21.0316 134.435 20.9375 134.446 20.8047C134.457 20.6608 134.468 20.4727 134.479 20.2402C134.491 20.0078 134.496 19.7145 134.496 19.3604L134.513 18.082C134.513 17.7279 134.496 17.3903 134.463 17.0693C134.441 16.7373 134.408 16.4551 134.363 16.2227L133.301 15.9902V15.376L135.758 14.7119L136.09 14.9941L136.007 15.8906L136.057 15.9072C136.422 15.4867 136.798 15.1768 137.186 14.9775C137.584 14.7783 138.005 14.6787 138.447 14.6787C138.879 14.6787 139.277 14.7894 139.643 15.0107C140.008 15.221 140.301 15.542 140.522 15.9736C140.755 16.4053 140.871 16.9421 140.871 17.584V19.377C140.871 19.7643 140.877 20.124 140.888 20.4561C140.899 20.777 140.921 20.9873 140.954 21.0869L141.983 21.3525L141.934 22H138.331L138.298 21.3525L139.261 21.0869C139.272 20.9984 139.283 20.8822 139.294 20.7383C139.305 20.5833 139.311 20.4007 139.311 20.1904C139.322 19.9801 139.327 19.7367 139.327 19.46V17.7998C139.327 17.335 139.25 16.9642 139.095 16.6875C138.94 16.3997 138.741 16.195 138.497 16.0732C138.265 15.9404 138.016 15.874 137.75 15.874C137.407 15.874 137.086 15.957 136.787 16.123C136.499 16.278 136.25 16.4993 136.04 16.7871V19.2607C136.04 19.7367 136.046 20.1351 136.057 20.4561C136.079 20.777 136.106 20.9873 136.14 21.0869L137.169 21.3525L137.119 22H133.434Z" fill="black"/>
<path d="M146.632 22.1328C145.89 22.1328 145.243 21.9779 144.689 21.668C144.147 21.3581 143.721 20.9264 143.411 20.373C143.101 19.8086 142.946 19.1667 142.946 18.4473C142.946 17.6725 143.118 17.0085 143.461 16.4551C143.804 15.8906 144.258 15.4535 144.822 15.1436C145.398 14.8337 146.023 14.6787 146.698 14.6787C147.396 14.6787 148.01 14.8337 148.541 15.1436C149.072 15.4535 149.482 15.8851 149.77 16.4385C150.057 16.9808 150.201 17.6172 150.201 18.3477C150.201 19.056 150.041 19.6979 149.72 20.2734C149.41 20.8379 148.984 21.2917 148.441 21.6348C147.899 21.9668 147.296 22.1328 146.632 22.1328ZM146.798 21.2695C147.141 21.2695 147.434 21.1644 147.678 20.9541C147.932 20.7438 148.126 20.445 148.259 20.0576C148.403 19.6702 148.475 19.222 148.475 18.7129C148.475 17.7611 148.292 16.9919 147.927 16.4053C147.573 15.8076 147.091 15.5088 146.482 15.5088C145.951 15.5088 145.52 15.7467 145.188 16.2227C144.867 16.6986 144.706 17.3294 144.706 18.1152C144.706 18.724 144.795 19.2663 144.972 19.7422C145.149 20.2181 145.398 20.5944 145.719 20.8711C146.04 21.1367 146.399 21.2695 146.798 21.2695Z" fill="black"/>
<path d="M156.742 20.8545C156.543 21.2529 156.25 21.5684 155.862 21.8008C155.475 22.0221 155.06 22.1328 154.617 22.1328C153.92 22.1328 153.344 21.9281 152.891 21.5186C152.437 21.098 152.21 20.4616 152.21 19.6094L152.26 15.7246H151.098V15.3262L153.438 13.2842H153.837L153.804 15.3262L153.787 19.377C153.787 19.9082 153.903 20.3011 154.136 20.5557C154.379 20.8102 154.722 20.9375 155.165 20.9375C155.397 20.9375 155.619 20.8932 155.829 20.8047C156.05 20.7051 156.244 20.5778 156.41 20.4229L156.742 20.8545ZM153.09 15.7246V14.8281H156.261V15.7246H153.09Z" fill="black"/>
<path d="M31.5498 41.0664L28.9102 34.7246L28.0801 34.459L28.1133 33.8115H31.4668L31.5 34.459L30.6367 34.7246L32.4961 39.4561L32.0645 39.4727L33.9902 34.7246L33.127 34.459L33.1602 33.8115H35.8164L35.8496 34.459L35.0693 34.7246L32.1309 41.0664H31.5498ZM26.5859 41.0664L23.8135 34.7246L23.0332 34.459L23.0664 33.8115H26.4365L26.4697 34.459L25.6396 34.7246L27.6152 39.4561L27.1006 39.4727L29.2256 34.625L29.7236 35.6709L27.167 41.0664H26.5859Z" fill="black"/>
<path d="M39.9502 41.1328C39.2087 41.1328 38.5612 40.9779 38.0078 40.668C37.4655 40.3581 37.0394 39.9264 36.7295 39.373C36.4196 38.8086 36.2646 38.1667 36.2646 37.4473C36.2646 36.6725 36.4362 36.0085 36.7793 35.4551C37.1224 34.8906 37.5762 34.4535 38.1406 34.1436C38.7161 33.8337 39.3415 33.6787 40.0166 33.6787C40.7139 33.6787 41.3281 33.8337 41.8594 34.1436C42.3906 34.4535 42.8001 34.8851 43.0879 35.4385C43.3757 35.9808 43.5195 36.6172 43.5195 37.3477C43.5195 38.056 43.359 38.6979 43.0381 39.2734C42.7282 39.8379 42.3021 40.2917 41.7598 40.6348C41.2174 40.9668 40.6143 41.1328 39.9502 41.1328ZM40.1162 40.2695C40.4593 40.2695 40.7526 40.1644 40.9961 39.9541C41.2507 39.7438 41.4443 39.445 41.5771 39.0576C41.721 38.6702 41.793 38.222 41.793 37.7129C41.793 36.7611 41.6104 35.9919 41.2451 35.4053C40.891 34.8076 40.4095 34.5088 39.8008 34.5088C39.2695 34.5088 38.8379 34.7467 38.5059 35.2227C38.1849 35.6986 38.0244 36.3294 38.0244 37.1152C38.0244 37.724 38.113 38.2663 38.29 38.7422C38.4671 39.2181 38.7161 39.5944 39.0371 39.8711C39.3581 40.1367 39.7178 40.2695 40.1162 40.2695Z" fill="black"/>
<path d="M44.6484 41L44.5986 40.3525L45.6279 40.0869C45.639 40.0426 45.6501 39.9486 45.6611 39.8047C45.6722 39.6608 45.6833 39.4671 45.6943 39.2236C45.7054 38.9801 45.7109 38.6924 45.7109 38.3604L45.7275 37.082C45.7275 36.7168 45.7109 36.3737 45.6777 36.0527C45.6556 35.7318 45.6224 35.4551 45.5781 35.2227L44.5156 34.9902V34.376L46.9561 33.7119L47.2549 33.9609L47.1885 35.3223L47.2383 35.3389C47.5592 34.708 47.8857 34.2819 48.2178 34.0605C48.5609 33.8392 48.8929 33.7285 49.2139 33.7285C49.4795 33.7285 49.7064 33.8005 49.8945 33.9443C50.0827 34.0771 50.1768 34.2874 50.1768 34.5752C50.1768 34.863 50.0771 35.0843 49.8779 35.2393C49.6787 35.3942 49.4297 35.4717 49.1309 35.4717C48.9095 35.4717 48.7048 35.4274 48.5166 35.3389C48.3285 35.2503 48.1403 35.1175 47.9521 34.9404L48.2842 35.0234C48.096 35.1562 47.9134 35.3333 47.7363 35.5547C47.5592 35.776 47.3988 36.0472 47.2549 36.3682L47.2715 37.8291C47.2826 38.1501 47.2936 38.4655 47.3047 38.7754C47.3158 39.0742 47.3268 39.3398 47.3379 39.5723C47.349 39.8047 47.36 39.9762 47.3711 40.0869L48.8154 40.3193L48.7656 41H44.6484Z" fill="black"/>
<path d="M50.8574 41L50.8076 40.3525L51.7539 40.0869C51.776 39.9762 51.7926 39.7881 51.8037 39.5225C51.8148 39.2458 51.8258 38.9193 51.8369 38.543C51.848 38.1556 51.8535 37.7406 51.8535 37.2979V34.9736C51.8535 34.5641 51.848 34.1491 51.8369 33.7285C51.8369 33.3079 51.8314 32.9095 51.8203 32.5332C51.8203 32.1569 51.8148 31.8304 51.8037 31.5537C51.7926 31.266 51.7871 31.0612 51.7871 30.9395L50.5586 30.7734L50.5254 30.1758L53.1152 29.4619L53.4805 29.7109C53.4694 30.0651 53.4583 30.4137 53.4473 30.7568C53.4362 31.0999 53.4251 31.4596 53.4141 31.8359C53.403 32.2122 53.3975 32.6217 53.3975 33.0645C53.3975 33.5072 53.3975 33.9997 53.3975 34.542L53.3809 38.5098C53.3809 38.7975 53.3864 39.0521 53.3975 39.2734C53.4085 39.4837 53.4196 39.6608 53.4307 39.8047C53.4417 39.9375 53.4473 40.0316 53.4473 40.0869L54.4766 40.3525L54.4268 41H50.8574ZM58.7764 41H56.6016C56.4134 40.7454 56.2585 40.5462 56.1367 40.4023C56.015 40.2585 55.8932 40.1201 55.7715 39.9873L53.5801 37.5967H53.1318L53.1484 37.1318L53.7461 36.9658L56.1035 34.6748L55.0078 34.4756L55.0576 33.8115H58.4941L58.5273 34.4756L57.4316 34.6748L54.5264 37.2314L54.7422 36.6006L57.166 39.2236C57.332 39.4007 57.5036 39.5833 57.6807 39.7715C57.8577 39.9486 58.0016 40.0869 58.1123 40.1865L58.8262 40.3359L58.7764 41Z" fill="black"/>
<path d="M62.3789 41L62.3291 40.3359L63.4414 40.0869C63.4525 40.0426 63.4635 39.9596 63.4746 39.8379C63.4857 39.7051 63.4967 39.5225 63.5078 39.29C63.5189 39.0465 63.5244 38.7367 63.5244 38.3604V37.1816C63.5244 36.7832 63.5133 36.418 63.4912 36.0859C63.4691 35.7428 63.4359 35.4551 63.3916 35.2227L62.2793 34.9902V34.376L64.8691 33.7119L65.1846 33.9775C65.1514 34.3206 65.1237 34.6637 65.1016 35.0068C65.0905 35.3389 65.085 35.7262 65.085 36.1689V38.2607C65.085 38.7256 65.0905 39.124 65.1016 39.4561C65.1237 39.7881 65.1458 39.9984 65.168 40.0869L66.2803 40.3359L66.2471 41H62.3789ZM64.3213 32.002C63.9893 32.002 63.7126 31.8968 63.4912 31.6865C63.2809 31.4652 63.1758 31.2051 63.1758 30.9062C63.1758 30.6074 63.2809 30.3529 63.4912 30.1426C63.7126 29.9212 63.9893 29.8105 64.3213 29.8105C64.6533 29.8105 64.9189 29.9212 65.1182 30.1426C65.3285 30.3529 65.4336 30.6074 65.4336 30.9062C65.4336 31.2051 65.3285 31.4652 65.1182 31.6865C64.9189 31.8968 64.6533 32.002 64.3213 32.002Z" fill="black"/>
<path d="M67.0273 41L66.9775 40.3525L68.0068 40.0869C68.0179 40.0316 68.029 39.9375 68.04 39.8047C68.0511 39.6608 68.0622 39.4727 68.0732 39.2402C68.0843 39.0078 68.0898 38.7145 68.0898 38.3604L68.1064 37.082C68.1064 36.7279 68.0898 36.3903 68.0566 36.0693C68.0345 35.7373 68.0013 35.4551 67.957 35.2227L66.8945 34.9902V34.376L69.3516 33.7119L69.6836 33.9941L69.6006 34.8906L69.6504 34.9072C70.0156 34.4867 70.3919 34.1768 70.7793 33.9775C71.1777 33.7783 71.5983 33.6787 72.041 33.6787C72.4727 33.6787 72.8711 33.7894 73.2363 34.0107C73.6016 34.221 73.8949 34.542 74.1162 34.9736C74.3486 35.4053 74.4648 35.9421 74.4648 36.584V38.377C74.4648 38.7643 74.4704 39.124 74.4814 39.4561C74.4925 39.777 74.5146 39.9873 74.5479 40.0869L75.5771 40.3525L75.5273 41H71.9248L71.8916 40.3525L72.8545 40.0869C72.8656 39.9984 72.8766 39.8822 72.8877 39.7383C72.8988 39.5833 72.9043 39.4007 72.9043 39.1904C72.9154 38.9801 72.9209 38.7367 72.9209 38.46V36.7998C72.9209 36.335 72.8434 35.9642 72.6885 35.6875C72.5335 35.3997 72.3343 35.195 72.0908 35.0732C71.8584 34.9404 71.6094 34.874 71.3438 34.874C71.0007 34.874 70.6797 34.957 70.3809 35.123C70.0931 35.278 69.8441 35.4993 69.6338 35.7871V38.2607C69.6338 38.7367 69.6393 39.1351 69.6504 39.4561C69.6725 39.777 69.7002 39.9873 69.7334 40.0869L70.7627 40.3525L70.7129 41H67.0273Z" fill="black"/>
<path d="M82.2842 41.1328C81.8193 41.1328 81.4098 41.0387 81.0557 40.8506C80.7015 40.6514 80.4303 40.4079 80.2422 40.1201C80.054 39.8324 79.96 39.5446 79.96 39.2568C79.96 38.8805 80.0817 38.5651 80.3252 38.3105C80.5687 38.056 80.9616 37.8457 81.5039 37.6797L84.0605 36.8496V36.0859C84.0605 35.8203 83.9775 35.5824 83.8115 35.3721C83.6566 35.1507 83.4463 34.9736 83.1807 34.8408C82.915 34.708 82.6217 34.6416 82.3008 34.6416C82.0462 34.6416 81.8747 34.6969 81.7861 34.8076C81.6976 34.9072 81.6423 35.112 81.6201 35.4219L81.5703 36.2188C81.1276 36.3184 80.7513 36.3073 80.4414 36.1855C80.1426 36.0527 79.9932 35.8369 79.9932 35.5381C79.9932 35.3499 80.0817 35.1562 80.2588 34.957C80.4469 34.7578 80.6794 34.5697 80.9561 34.3926C81.2438 34.2155 81.5482 34.0661 81.8691 33.9443C82.1901 33.8115 82.4945 33.723 82.7822 33.6787C83.6566 33.6787 84.3483 33.9001 84.8574 34.3428C85.3776 34.7744 85.6432 35.3499 85.6543 36.0693L85.6211 38.709C85.6211 38.9414 85.6266 39.1572 85.6377 39.3564C85.6598 39.5446 85.6875 39.6885 85.7207 39.7881L86.7998 39.9873V40.5684L85.9033 40.917C85.7373 40.9834 85.5824 41.0332 85.4385 41.0664C85.2946 41.1107 85.1673 41.1328 85.0566 41.1328C84.6914 41.1328 84.4424 40.9336 84.3096 40.5352L84.0938 39.8379L84.376 39.8711C84.0218 40.2806 83.6732 40.596 83.3301 40.8174C82.987 41.0277 82.6383 41.1328 82.2842 41.1328ZM82.8652 39.9873C83.0866 39.9873 83.2969 39.9375 83.4961 39.8379C83.6953 39.7383 83.8835 39.5889 84.0605 39.3896V37.6797L82.4336 38.0781C82.168 38.1445 81.9743 38.2497 81.8525 38.3936C81.7419 38.5264 81.6865 38.7035 81.6865 38.9248C81.6865 39.2015 81.8027 39.4505 82.0352 39.6719C82.2676 39.8822 82.5443 39.9873 82.8652 39.9873Z" fill="black"/>
<path d="M87.4639 41L87.4141 40.3359L88.4932 40.0869C88.5153 39.9873 88.5319 39.8047 88.543 39.5391C88.554 39.2624 88.5651 38.9137 88.5762 38.4932C88.5872 38.0726 88.5928 37.5967 88.5928 37.0654V34.9736C88.5928 34.5752 88.5872 34.1657 88.5762 33.7451C88.5762 33.3135 88.5706 32.9095 88.5596 32.5332C88.5596 32.1569 88.554 31.8304 88.543 31.5537C88.5319 31.266 88.5208 31.0612 88.5098 30.9395L87.2812 30.7734L87.248 30.1758L89.8711 29.4619L90.2363 29.7109C90.2253 30.1758 90.2142 30.6406 90.2031 31.1055C90.1921 31.5592 90.181 32.0684 90.1699 32.6328C90.1699 33.1862 90.1699 33.8613 90.1699 34.6582L90.1533 37.248C90.1533 37.9453 90.1589 38.5651 90.1699 39.1074C90.1921 39.6387 90.2142 39.9652 90.2363 40.0869L91.3154 40.3359L91.2822 41H87.4639Z" fill="black"/>
<path d="M92.0625 41L92.0127 40.3359L93.0918 40.0869C93.1139 39.9873 93.1305 39.8047 93.1416 39.5391C93.1527 39.2624 93.1637 38.9137 93.1748 38.4932C93.1859 38.0726 93.1914 37.5967 93.1914 37.0654V34.9736C93.1914 34.5752 93.1859 34.1657 93.1748 33.7451C93.1748 33.3135 93.1693 32.9095 93.1582 32.5332C93.1582 32.1569 93.1527 31.8304 93.1416 31.5537C93.1305 31.266 93.1195 31.0612 93.1084 30.9395L91.8799 30.7734L91.8467 30.1758L94.4697 29.4619L94.835 29.7109C94.8239 30.1758 94.8128 30.6406 94.8018 31.1055C94.7907 31.5592 94.7796 32.0684 94.7686 32.6328C94.7686 33.1862 94.7686 33.8613 94.7686 34.6582L94.752 37.248C94.752 37.9453 94.7575 38.5651 94.7686 39.1074C94.7907 39.6387 94.8128 39.9652 94.835 40.0869L95.9141 40.3359L95.8809 41H92.0625Z" fill="black"/>
<path d="M107.27 39.7217L108.332 39.9873V40.585L105.958 41.1826L105.659 40.9668L105.676 39.8877L105.626 39.8711C105.305 40.347 104.967 40.679 104.613 40.8672C104.27 41.0443 103.905 41.1328 103.518 41.1328C102.754 41.1328 102.123 40.9004 101.625 40.4355C101.127 39.9596 100.878 39.2513 100.878 38.3105V36.8828C100.878 36.6172 100.867 36.346 100.845 36.0693C100.834 35.7926 100.817 35.5104 100.795 35.2227L99.666 34.9902V34.376L102.173 33.7119L102.521 33.9941C102.499 34.3262 102.477 34.7025 102.455 35.123C102.444 35.5326 102.438 35.9587 102.438 36.4014L102.422 38.0947C102.422 38.7367 102.571 39.2015 102.87 39.4893C103.169 39.777 103.562 39.9209 104.049 39.9209C104.314 39.9209 104.591 39.849 104.879 39.7051C105.167 39.5501 105.416 39.3011 105.626 38.958V37.1152C105.626 36.8717 105.62 36.6393 105.609 36.418C105.609 36.1855 105.604 35.9697 105.593 35.7705C105.582 35.5602 105.565 35.3776 105.543 35.2227L104.331 34.9902V34.376L106.888 33.7119L107.203 33.9609C107.192 34.2376 107.181 34.4977 107.17 34.7412C107.17 34.9847 107.17 35.2393 107.17 35.5049C107.17 35.7594 107.17 36.0417 107.17 36.3516V37.5801C107.17 38.0781 107.181 38.5098 107.203 38.875C107.225 39.2402 107.247 39.5225 107.27 39.7217Z" fill="black"/>
<path d="M111.901 41.1328C111.481 41.1328 111.055 41.0885 110.623 41C110.202 40.9004 109.843 40.7676 109.544 40.6016L109.461 38.7754H110.357L110.706 39.9707C111.093 40.2253 111.531 40.3525 112.018 40.3525C112.383 40.3525 112.671 40.2695 112.881 40.1035C113.102 39.9375 113.213 39.7106 113.213 39.4229C113.213 39.1462 113.108 38.9082 112.897 38.709C112.698 38.4987 112.294 38.2718 111.686 38.0283C110.889 37.7074 110.33 37.3809 110.009 37.0488C109.688 36.7168 109.527 36.2962 109.527 35.7871C109.527 35.3776 109.655 35.0179 109.909 34.708C110.164 34.387 110.512 34.138 110.955 33.9609C111.398 33.7728 111.912 33.6787 112.499 33.6787C112.82 33.6787 113.146 33.7119 113.479 33.7783C113.811 33.8337 114.087 33.9111 114.309 34.0107L114.491 35.7871H113.628L113.246 34.6416C113.135 34.5752 113.003 34.5254 112.848 34.4922C112.693 34.4479 112.532 34.4258 112.366 34.4258C111.99 34.4258 111.686 34.5143 111.453 34.6914C111.232 34.8685 111.121 35.0898 111.121 35.3555C111.121 35.6654 111.248 35.9199 111.503 36.1191C111.757 36.3073 112.206 36.5452 112.848 36.833C113.578 37.154 114.087 37.4805 114.375 37.8125C114.674 38.1335 114.823 38.5319 114.823 39.0078C114.823 39.6387 114.547 40.1533 113.993 40.5518C113.451 40.9391 112.754 41.1328 111.901 41.1328Z" fill="black"/>
<path d="M119.555 41.1328C118.891 41.1328 118.293 40.9834 117.762 40.6846C117.23 40.3857 116.81 39.9652 116.5 39.4229C116.201 38.8805 116.052 38.2497 116.052 37.5303C116.052 36.7555 116.218 36.0804 116.55 35.5049C116.882 34.9183 117.313 34.4645 117.845 34.1436C118.376 33.8226 118.951 33.6676 119.571 33.6787C120.479 33.6898 121.176 33.9886 121.663 34.5752C122.161 35.1507 122.41 35.9365 122.41 36.9326V37.2646H117.413V36.4844H121.165L120.949 36.7666V36.3516C120.949 35.7539 120.811 35.2891 120.534 34.957C120.269 34.6139 119.903 34.4424 119.438 34.4424C119.14 34.4424 118.852 34.5309 118.575 34.708C118.31 34.8851 118.094 35.1507 117.928 35.5049C117.773 35.859 117.695 36.3018 117.695 36.833V37.082C117.695 37.9453 117.911 38.626 118.343 39.124C118.785 39.6221 119.361 39.8711 120.069 39.8711C120.457 39.8711 120.8 39.7992 121.099 39.6553C121.409 39.5003 121.713 39.2513 122.012 38.9082L122.46 39.3232C122.15 39.932 121.741 40.3857 121.231 40.6846C120.733 40.9834 120.174 41.1328 119.555 41.1328Z" fill="black"/>
<path d="M130.362 41.1328C129.709 41.1328 129.117 40.9889 128.586 40.7012C128.055 40.4134 127.629 39.9984 127.308 39.4561C126.998 38.9137 126.843 38.2829 126.843 37.5635C126.843 36.8441 127.009 36.1911 127.341 35.6045C127.673 35.0179 128.132 34.5531 128.719 34.21C129.305 33.8558 129.969 33.6787 130.711 33.6787C131.198 33.6787 131.613 33.7451 131.956 33.8779C132.31 33.9997 132.581 34.1657 132.77 34.376C132.958 34.5863 133.052 34.8076 133.052 35.04C133.052 35.2503 132.985 35.4219 132.853 35.5547C132.731 35.6764 132.565 35.7373 132.354 35.7373C132.166 35.7373 132 35.7041 131.856 35.6377C131.713 35.5602 131.547 35.4274 131.358 35.2393L130.396 34.3096L131.06 34.4922C130.661 34.4036 130.268 34.4479 129.881 34.625C129.505 34.8021 129.195 35.1064 128.951 35.5381C128.708 35.9587 128.586 36.501 128.586 37.165C128.586 38.0394 128.802 38.709 129.233 39.1738C129.676 39.6387 130.224 39.8711 130.877 39.8711C131.264 39.8711 131.607 39.7992 131.906 39.6553C132.216 39.5003 132.515 39.2513 132.803 38.9082L133.268 39.3066C132.958 39.9154 132.548 40.3747 132.039 40.6846C131.541 40.9834 130.982 41.1328 130.362 41.1328Z" fill="black"/>
<path d="M136.621 41.1328C136.156 41.1328 135.747 41.0387 135.393 40.8506C135.038 40.6514 134.767 40.4079 134.579 40.1201C134.391 39.8324 134.297 39.5446 134.297 39.2568C134.297 38.8805 134.419 38.5651 134.662 38.3105C134.906 38.056 135.299 37.8457 135.841 37.6797L138.397 36.8496V36.0859C138.397 35.8203 138.314 35.5824 138.148 35.3721C137.993 35.1507 137.783 34.9736 137.518 34.8408C137.252 34.708 136.959 34.6416 136.638 34.6416C136.383 34.6416 136.212 34.6969 136.123 34.8076C136.035 34.9072 135.979 35.112 135.957 35.4219L135.907 36.2188C135.465 36.3184 135.088 36.3073 134.778 36.1855C134.479 36.0527 134.33 35.8369 134.33 35.5381C134.33 35.3499 134.419 35.1562 134.596 34.957C134.784 34.7578 135.016 34.5697 135.293 34.3926C135.581 34.2155 135.885 34.0661 136.206 33.9443C136.527 33.8115 136.831 33.723 137.119 33.6787C137.993 33.6787 138.685 33.9001 139.194 34.3428C139.715 34.7744 139.98 35.3499 139.991 36.0693L139.958 38.709C139.958 38.9414 139.964 39.1572 139.975 39.3564C139.997 39.5446 140.024 39.6885 140.058 39.7881L141.137 39.9873V40.5684L140.24 40.917C140.074 40.9834 139.919 41.0332 139.775 41.0664C139.632 41.1107 139.504 41.1328 139.394 41.1328C139.028 41.1328 138.779 40.9336 138.646 40.5352L138.431 39.8379L138.713 39.8711C138.359 40.2806 138.01 40.596 137.667 40.8174C137.324 41.0277 136.975 41.1328 136.621 41.1328ZM137.202 39.9873C137.424 39.9873 137.634 39.9375 137.833 39.8379C138.032 39.7383 138.22 39.5889 138.397 39.3896V37.6797L136.771 38.0781C136.505 38.1445 136.311 38.2497 136.189 38.3936C136.079 38.5264 136.023 38.7035 136.023 38.9248C136.023 39.2015 136.14 39.4505 136.372 39.6719C136.604 39.8822 136.881 39.9873 137.202 39.9873Z" fill="black"/>
<path d="M144.64 41.1328C144.219 41.1328 143.793 41.0885 143.361 41C142.941 40.9004 142.581 40.7676 142.282 40.6016L142.199 38.7754H143.096L143.444 39.9707C143.832 40.2253 144.269 40.3525 144.756 40.3525C145.121 40.3525 145.409 40.2695 145.619 40.1035C145.84 39.9375 145.951 39.7106 145.951 39.4229C145.951 39.1462 145.846 38.9082 145.636 38.709C145.437 38.4987 145.033 38.2718 144.424 38.0283C143.627 37.7074 143.068 37.3809 142.747 37.0488C142.426 36.7168 142.266 36.2962 142.266 35.7871C142.266 35.3776 142.393 35.0179 142.647 34.708C142.902 34.387 143.251 34.138 143.693 33.9609C144.136 33.7728 144.651 33.6787 145.237 33.6787C145.558 33.6787 145.885 33.7119 146.217 33.7783C146.549 33.8337 146.826 33.9111 147.047 34.0107L147.229 35.7871H146.366L145.984 34.6416C145.874 34.5752 145.741 34.5254 145.586 34.4922C145.431 34.4479 145.271 34.4258 145.104 34.4258C144.728 34.4258 144.424 34.5143 144.191 34.6914C143.97 34.8685 143.859 35.0898 143.859 35.3555C143.859 35.6654 143.987 35.9199 144.241 36.1191C144.496 36.3073 144.944 36.5452 145.586 36.833C146.316 37.154 146.826 37.4805 147.113 37.8125C147.412 38.1335 147.562 38.5319 147.562 39.0078C147.562 39.6387 147.285 40.1533 146.731 40.5518C146.189 40.9391 145.492 41.1328 144.64 41.1328Z" fill="black"/>
<path d="M152.293 41.1328C151.629 41.1328 151.031 40.9834 150.5 40.6846C149.969 40.3857 149.548 39.9652 149.238 39.4229C148.939 38.8805 148.79 38.2497 148.79 37.5303C148.79 36.7555 148.956 36.0804 149.288 35.5049C149.62 34.9183 150.052 34.4645 150.583 34.1436C151.114 33.8226 151.69 33.6676 152.31 33.6787C153.217 33.6898 153.914 33.9886 154.401 34.5752C154.899 35.1507 155.148 35.9365 155.148 36.9326V37.2646H150.151V36.4844H153.903L153.688 36.7666V36.3516C153.688 35.7539 153.549 35.2891 153.272 34.957C153.007 34.6139 152.642 34.4424 152.177 34.4424C151.878 34.4424 151.59 34.5309 151.313 34.708C151.048 34.8851 150.832 35.1507 150.666 35.5049C150.511 35.859 150.434 36.3018 150.434 36.833V37.082C150.434 37.9453 150.649 38.626 151.081 39.124C151.524 39.6221 152.099 39.8711 152.808 39.8711C153.195 39.8711 153.538 39.7992 153.837 39.6553C154.147 39.5003 154.451 39.2513 154.75 38.9082L155.198 39.3232C154.888 39.932 154.479 40.3857 153.97 40.6846C153.472 40.9834 152.913 41.1328 152.293 41.1328Z" fill="black"/>
<path d="M158.967 41.1328C158.546 41.1328 158.12 41.0885 157.688 41C157.268 40.9004 156.908 40.7676 156.609 40.6016L156.526 38.7754H157.423L157.771 39.9707C158.159 40.2253 158.596 40.3525 159.083 40.3525C159.448 40.3525 159.736 40.2695 159.946 40.1035C160.168 39.9375 160.278 39.7106 160.278 39.4229C160.278 39.1462 160.173 38.9082 159.963 38.709C159.764 38.4987 159.36 38.2718 158.751 38.0283C157.954 37.7074 157.395 37.3809 157.074 37.0488C156.753 36.7168 156.593 36.2962 156.593 35.7871C156.593 35.3776 156.72 35.0179 156.975 34.708C157.229 34.387 157.578 34.138 158.021 33.9609C158.463 33.7728 158.978 33.6787 159.564 33.6787C159.885 33.6787 160.212 33.7119 160.544 33.7783C160.876 33.8337 161.153 33.9111 161.374 34.0107L161.557 35.7871H160.693L160.312 34.6416C160.201 34.5752 160.068 34.5254 159.913 34.4922C159.758 34.4479 159.598 34.4258 159.432 34.4258C159.055 34.4258 158.751 34.5143 158.519 34.6914C158.297 34.8685 158.187 35.0898 158.187 35.3555C158.187 35.6654 158.314 35.9199 158.568 36.1191C158.823 36.3073 159.271 36.5452 159.913 36.833C160.644 37.154 161.153 37.4805 161.44 37.8125C161.739 38.1335 161.889 38.5319 161.889 39.0078C161.889 39.6387 161.612 40.1533 161.059 40.5518C160.516 40.9391 159.819 41.1328 158.967 41.1328Z" fill="black"/>
</svg>
