<svg width="1519" height="205" viewBox="0 0 1519 205" fill="none" xmlns="http://www.w3.org/2000/svg">
<path d="M1422.75 161.77L1416.61 158.357L1416.84 143.568L1416.16 143.341C1412.37 149.863 1408.12 154.489 1403.42 157.22C1398.72 159.798 1393.87 161.088 1388.86 161.088C1380.83 161.088 1373.4 159.04 1366.57 154.945C1359.75 150.849 1354.29 145.161 1350.2 137.88C1346.1 130.448 1344.05 121.878 1344.05 112.17C1344.05 103.676 1345.65 96.0914 1348.83 89.4173C1352.01 82.5916 1356.26 76.8276 1361.57 72.1254C1366.88 67.2716 1372.79 63.6312 1379.31 61.2042C1385.83 58.6256 1392.5 57.3363 1399.33 57.3363C1402.21 57.3363 1405.16 57.6397 1408.2 58.2464C1411.23 58.7015 1413.73 59.4599 1415.7 60.5217C1415.7 57.6397 1415.63 54.4543 1415.48 50.9656C1415.48 47.3252 1415.4 43.7607 1415.25 40.2719C1415.25 36.6315 1415.17 33.3703 1415.02 30.4884C1415.02 27.4547 1414.94 25.1794 1414.79 23.6626L1397.96 21.1598L1397.51 11.3763L1440.5 0.227539L1446.86 4.09546C1446.41 13.4998 1445.96 22.2216 1445.5 30.2608C1445.05 38.1484 1444.82 46.4909 1444.82 55.2886L1444.59 108.074C1444.59 115.507 1444.82 121.574 1445.27 126.276C1445.73 130.979 1446.11 134.998 1446.41 138.335L1461.42 141.521V151.304L1422.75 161.77ZM1399.78 139.245C1402.21 139.245 1404.94 138.487 1407.97 136.97C1411.15 135.453 1413.88 132.95 1416.16 129.462V78.7236C1414.04 75.8417 1411.53 73.8698 1408.65 72.808C1405.77 71.5945 1402.89 70.9878 1400.01 70.9878C1392.88 70.9878 1386.97 73.9456 1382.27 79.8613C1377.72 85.7769 1375.44 93.892 1375.44 104.206C1375.44 115.431 1377.79 124.077 1382.49 130.144C1387.35 136.212 1393.11 139.245 1399.78 139.245Z" fill="black"/>
<path d="M1246.93 159.495L1246.25 149.029L1260.35 145.161C1260.5 144.554 1260.65 143.189 1260.8 141.065C1260.95 138.79 1261.11 136.06 1261.26 132.875C1261.41 129.538 1261.49 126.049 1261.49 122.408L1261.71 105.344C1261.71 100.794 1261.56 96.7739 1261.26 93.2852C1260.95 89.6448 1260.42 85.8528 1259.67 81.909L1245.11 78.7236V68.485L1284.46 58.2464L1290.37 62.1143L1289.46 80.0888L1290.15 80.3163C1294.54 71.822 1298.94 66.0581 1303.34 63.0244C1307.89 59.9908 1312.51 58.4739 1317.21 58.4739C1321.31 58.4739 1324.87 59.6116 1327.9 61.8868C1331.09 64.1621 1332.68 67.7266 1332.68 72.5805C1332.68 77.4343 1331.01 81.2264 1327.68 83.9567C1324.34 86.687 1320.47 88.0522 1316.08 88.0522C1312.44 88.0522 1309.18 87.4454 1306.29 86.232C1303.41 84.8668 1300.23 82.5157 1296.74 79.1787L1303.11 79.8613C1300.84 81.5298 1298.64 83.6533 1296.51 86.232C1294.39 88.8106 1292.57 91.7684 1291.06 95.1054L1291.28 113.08C1291.43 118.692 1291.51 123.774 1291.51 128.324C1291.66 132.723 1291.81 136.439 1291.96 139.473C1292.12 142.355 1292.27 144.251 1292.42 145.161L1312.21 148.574L1311.53 159.495H1246.93Z" fill="black"/>
<path d="M1182.56 160.633C1171.94 160.633 1162.62 158.509 1154.58 154.262C1146.54 149.863 1140.25 143.872 1135.7 136.287C1131.15 128.552 1128.88 119.754 1128.88 109.895C1128.88 98.67 1131.45 89.1139 1136.61 81.2264C1141.77 73.3389 1148.51 67.3474 1156.85 63.2519C1165.19 59.1565 1174.07 57.1088 1183.47 57.1088C1193.48 57.1088 1202.27 59.2323 1209.85 63.4795C1217.59 67.7266 1223.58 73.7181 1227.82 81.4539C1232.22 89.0381 1234.42 97.7599 1234.42 107.619C1234.42 117.63 1232.07 126.656 1227.37 134.695C1222.82 142.582 1216.6 148.877 1208.71 153.579C1200.83 158.282 1192.11 160.633 1182.56 160.633ZM1184.83 146.071C1188.62 146.071 1191.81 144.858 1194.39 142.431C1197.11 140.004 1199.16 136.439 1200.53 131.737C1202.04 127.035 1202.8 121.422 1202.8 114.9C1202.8 101.855 1200.68 91.2375 1196.43 83.0466C1192.34 74.8557 1186.8 70.7603 1179.83 70.7603C1174.07 70.7603 1169.52 73.7181 1166.18 79.6337C1162.84 85.3977 1161.18 93.2852 1161.18 103.296C1161.18 111.336 1162.16 118.616 1164.13 125.139C1166.26 131.661 1169.06 136.818 1172.55 140.61C1176.19 144.251 1180.28 146.071 1184.83 146.071Z" fill="black"/>
<path d="M1011.27 67.5749L972.379 159.495H960.324L909.145 40.2719L897.545 36.6315L898.227 25.2553H955.319L956.002 36.6315L944.629 40.2719L980.567 128.779H969.649L1001.49 47.5527L1011.27 67.5749ZM1044.71 159.495L992.85 40.2719L981.477 36.6315L982.16 25.2553H1041.07L1041.75 36.6315L1027.42 40.2719L1064.04 128.779H1054.49L1087.7 40.2719L1072.23 36.6315L1072.92 25.2553H1119.32L1120 36.6315L1108.4 40.2719L1056.77 159.495H1044.71Z" fill="black"/>
<path d="M805.886 160.633C796.03 160.633 787.235 158.433 779.501 154.034C771.919 149.636 765.929 143.644 761.532 136.06C757.286 128.476 755.163 119.906 755.163 110.35C755.163 99.7318 757.589 90.4791 762.442 82.5916C767.294 74.5524 773.587 68.2575 781.321 63.707C789.206 59.1565 797.622 56.9571 806.569 57.1088C819.913 57.1088 830.224 61.2801 837.503 69.6226C844.782 77.8135 848.421 88.5072 848.421 101.704V107.164H784.848H781.548V95.333H784.848H826.13L822.718 100.794V93.0577C822.718 85.9286 821.126 80.2405 817.942 75.9933C814.757 71.7462 810.36 69.6226 804.749 69.6226C800.958 69.6226 797.546 70.6844 794.513 72.808C791.481 74.9316 789.054 78.1928 787.235 82.5916C785.567 86.8387 784.733 92.2235 784.733 98.7458V103.524C784.733 104.765 784.771 105.979 784.848 107.164C785.427 116.118 788.194 123.474 793.149 129.234C798.911 135.757 806.569 139.018 816.122 139.018C821.278 139.018 825.979 138.108 830.224 136.287C834.47 134.316 838.565 131.054 842.507 126.504L849.558 132.875C845.313 141.976 839.323 148.877 831.589 153.579C823.856 158.282 815.288 160.633 805.886 160.633Z" fill="black"/>
<path d="M617.778 158.812L617.095 148.346L631.198 144.478C631.349 143.872 631.501 142.506 631.653 140.383C631.804 138.259 631.956 135.605 632.108 132.42C632.259 129.083 632.335 125.518 632.335 121.726L632.562 104.434C632.562 99.7318 632.411 95.6363 632.108 92.1476C631.804 88.6589 631.274 85.0185 630.515 81.2264L615.958 78.041V67.8024L655.991 57.5638L662.132 61.4317L660.767 74.8557L661.45 75.0832C666.151 69.0159 671.306 64.5413 676.917 61.6593C682.679 58.6256 688.745 57.1088 695.114 57.1088C701.634 57.1088 707.396 58.7014 712.4 61.8868C717.556 65.0721 721.65 69.7743 724.683 75.9933C727.716 82.0607 729.232 89.4173 729.232 98.0633V121.498C729.232 126.656 729.308 131.509 729.46 136.06C729.612 140.459 729.915 143.265 730.37 144.478L744.472 148.346L743.79 158.812H686.698L686.015 148.346L698.98 144.478C699.284 143.113 699.511 141.217 699.663 138.79C699.814 136.212 699.89 133.405 699.89 130.372C700.042 127.338 700.118 124.456 700.118 121.726V102.614C700.118 96.8498 699.208 92.2234 697.388 88.7347C695.72 85.0943 693.446 82.4399 690.564 80.7714C687.835 79.1028 684.651 78.2686 681.011 78.2686C677.22 78.2686 673.657 79.1028 670.321 80.7714C667.136 82.4399 664.255 84.8668 661.677 88.0522V121.498C661.677 126.656 661.753 131.509 661.905 136.06C662.208 140.459 662.511 143.265 662.815 144.478L676.689 148.346L676.007 158.812H617.778Z" fill="black"/>
<path d="M534.528 160.86C520.578 160.86 508.143 157.978 497.225 152.214C486.459 146.45 477.967 138.563 471.75 128.552C465.684 118.389 462.651 106.785 462.651 93.7403C462.651 80.0888 465.684 67.9542 471.75 57.3363C477.967 46.7185 486.535 38.3759 497.453 32.3086C508.371 26.2412 520.729 23.2076 534.528 23.2076C548.176 23.2076 560.155 26.0896 570.467 31.8535C580.778 37.4658 588.815 45.2775 594.577 55.2886C600.491 65.2997 603.448 76.9793 603.448 90.3274C603.448 102.007 601.325 112.246 597.079 121.043C592.834 129.841 587.223 137.198 580.248 143.113C573.424 149.029 565.993 153.504 557.957 156.537C549.92 159.419 542.11 160.86 534.528 160.86ZM536.121 144.023C543.248 144.023 549.162 142.203 553.862 138.563C558.563 134.771 562.051 129.31 564.325 122.181C566.752 114.9 567.965 106.178 567.965 96.0156C567.965 84.3359 566.448 74.1732 563.416 65.5272C560.534 56.8813 556.364 50.2072 550.905 45.505C545.598 40.6512 539.229 38.2242 531.799 38.2242C521.487 38.2242 513.375 42.5472 507.461 51.1932C501.547 59.8391 498.59 71.8221 498.59 87.1421C498.59 98.3667 500.182 108.226 503.366 116.72C506.551 125.215 510.948 131.889 516.559 136.743C522.321 141.596 528.842 144.023 536.121 144.023Z" fill="black"/>
<path d="M398.99 155.172C405.055 151.228 409.225 145.995 411.5 139.473L405.586 133.102C403.615 134.922 401.264 136.439 398.535 137.653C395.805 138.714 393 139.245 390.119 139.245C384.66 139.245 380.414 137.88 377.381 135.15C374.348 132.268 372.832 127.642 372.832 121.271L373.237 73.263H405.131V58.929H373.406L373.742 35.2664H366.69L327.795 66.2098V73.263H343.717L343.035 124.001C343.035 136.287 346.371 145.54 353.043 151.759C359.867 157.826 368.51 160.86 378.973 160.86C386.403 160.86 393.076 158.964 398.99 155.172Z" fill="black"/>
<path d="M275.963 160.633C269.594 160.633 263.301 159.95 257.084 158.585C250.867 157.068 245.635 155.172 241.389 152.897L240.252 126.276H254.809L259.586 142.658C265.348 145.995 271.338 147.664 277.555 147.664C282.256 147.664 285.82 146.754 288.246 144.933C290.672 142.962 291.885 140.383 291.885 137.198C291.885 133.861 290.52 130.979 287.791 128.552C285.213 126.125 279.83 123.394 271.641 120.361C260.42 116.265 252.611 111.791 248.213 106.937C243.815 102.083 241.617 96.0155 241.617 88.7347C241.617 82.5157 243.512 77.0551 247.303 72.3529C251.094 67.4991 256.402 63.7828 263.225 61.2042C270.049 58.4739 277.934 57.1088 286.881 57.1088C291.733 57.1088 296.662 57.5638 301.666 58.4739C306.67 59.384 310.764 60.5975 313.949 62.1143L316.678 88.5072H302.121L297.117 72.3529C295.6 71.4428 293.705 70.7603 291.43 70.3052C289.307 69.6985 287.26 69.3951 285.289 69.3951C280.74 69.3951 277.024 70.381 274.143 72.3529C271.414 74.3248 270.049 76.9793 270.049 80.3163C270.049 83.9567 271.717 86.9904 275.053 89.4173C278.389 91.8442 284.455 94.8779 293.25 98.5183C303.258 102.614 310.385 107.013 314.631 111.715C318.877 116.265 321 121.953 321 128.779C321 138.335 316.83 146.071 308.49 151.987C300.149 157.751 289.307 160.633 275.963 160.633Z" fill="black"/>
<path d="M214.002 138.79L229.014 141.976V151.759L190.346 162.225L184.205 158.812L184.432 142.886L183.75 142.658C179.352 149.636 174.576 154.565 169.42 157.447C164.416 160.178 159.184 161.543 153.725 161.543C142.807 161.543 133.936 158.13 127.113 151.304C120.289 144.327 116.877 134.012 116.877 120.361V101.021C116.877 97.6841 116.801 94.4229 116.65 91.2376C116.498 88.0522 116.27 84.8669 115.967 81.6815L100.5 78.4962V68.2575L141.443 58.0189L147.811 61.8868C147.508 66.4373 147.205 71.8979 146.902 78.2686C146.598 84.6393 146.447 91.1617 146.447 97.8358L146.219 116.948C146.219 124.835 147.963 130.599 151.451 134.24C154.938 137.88 159.715 139.7 165.781 139.7C168.813 139.7 171.922 138.866 175.106 137.198C178.443 135.529 181.248 132.799 183.522 129.007V106.937C183.522 103.296 183.522 100.111 183.522 97.3807C183.522 94.4988 183.371 91.8443 183.068 89.4174C182.916 86.8387 182.688 84.2601 182.385 81.6815L166.236 78.4962V68.2575L207.406 58.0189L213.547 61.8868C213.244 64.4655 213.016 67.3474 212.865 70.5328C212.865 73.7181 212.789 77.4344 212.637 81.6815C212.637 85.777 212.637 90.4791 212.637 95.7881V113.99C212.637 117.63 212.713 121.574 212.865 125.821C213.168 129.917 213.547 134.24 214.002 138.79Z" fill="black"/>
<path d="M75.0614 45.7325C75.3646 42.5472 75.6679 40.6511 75.9712 40.0444L90.5286 36.6315L89.8462 25.2553H27.0676L26.3852 36.6315L42.3073 39.8169C42.6106 40.5753 42.8381 42.6989 42.9897 46.1876C43.293 49.5246 43.5204 53.6959 43.6721 58.7015C43.8237 63.5553 43.8995 68.7884 43.8995 74.4007L44.127 163.818C44.127 172.161 43.7479 178.531 42.9897 182.93C42.2315 187.329 40.8667 190.135 38.8954 191.349C38.5631 191.57 38.2003 191.764 37.8072 191.93L27.0676 181.792C24.3381 179.062 21.7602 177.09 19.334 175.877C16.7561 174.815 14.1024 174.284 11.3729 174.284C8.18851 174.284 5.53483 175.346 3.41188 177.469C1.13729 179.593 0 182.475 0 186.115C0 191.576 3.03278 196.051 9.09835 199.539C15.1639 203.18 22.8217 205 32.0717 205C40.7151 205 48.2212 203.028 54.5901 199.084C61.1106 195.292 66.1147 189.832 69.6024 182.703C73.0901 175.725 74.8339 167.458 74.8339 157.902L74.6065 75.0832V58.0189C74.7581 53.0133 74.9097 48.9179 75.0614 45.7325Z" fill="black"/>
<path d="M1490.78 108.302L1477.36 33.9012C1476.3 27.3788 1476.38 21.6149 1477.59 16.6093C1478.96 11.6038 1481.31 7.73583 1484.64 5.00553C1487.98 2.12355 1492.15 0.682556 1497.15 0.682556C1502.31 0.682556 1506.56 2.12355 1509.89 5.00553C1513.23 7.73583 1515.5 11.6038 1516.72 16.6093C1518.08 21.6149 1518.23 27.3788 1517.17 33.9012L1503.75 108.302H1490.78ZM1497.15 161.77C1493.21 161.77 1489.65 160.86 1486.46 159.04C1483.28 157.22 1480.7 154.793 1478.73 151.759C1476.91 148.574 1476 145.009 1476 141.065C1476 137.122 1476.91 133.557 1478.73 130.372C1480.7 127.186 1483.28 124.684 1486.46 122.863C1489.65 120.892 1493.21 119.906 1497.15 119.906C1501.1 119.906 1504.66 120.892 1507.84 122.863C1511.18 124.684 1513.76 127.186 1515.58 130.372C1517.55 133.557 1518.53 137.122 1518.53 141.065C1518.53 146.829 1516.49 151.759 1512.39 155.855C1508.3 159.798 1503.22 161.77 1497.15 161.77Z" fill="black"/>
</svg>
