<svg width="1519" height="264" viewBox="0 0 1519 264" fill="none" xmlns="http://www.w3.org/2000/svg">
<path d="M1422.74 161.543L1416.61 158.13L1416.84 143.341L1416.16 143.113C1412.37 149.636 1408.12 154.262 1403.42 156.992C1398.72 159.571 1393.87 160.86 1388.86 160.86C1380.83 160.86 1373.4 158.812 1366.57 154.717C1359.75 150.622 1354.29 144.933 1350.2 137.653C1346.1 130.22 1344.05 121.65 1344.05 111.942C1344.05 103.448 1345.65 95.8638 1348.83 89.1898C1352.01 82.364 1356.26 76.6001 1361.57 71.8979C1366.88 67.044 1372.79 63.4036 1379.31 60.9767C1385.83 58.3981 1392.5 57.1088 1399.33 57.1088C1402.21 57.1088 1405.16 57.4121 1408.2 58.0189C1411.23 58.4739 1413.73 59.2323 1415.7 60.2941C1415.7 57.4121 1415.63 54.2268 1415.48 50.7381C1415.48 47.0977 1415.4 43.5331 1415.25 40.0444C1415.25 36.404 1415.17 33.1428 1415.02 30.2608C1415.02 27.2272 1414.94 24.9519 1414.79 23.4351L1397.96 20.9323L1397.51 11.1487L1440.5 0L1446.86 3.86792C1446.41 13.2723 1445.96 21.9941 1445.5 30.0333C1445.05 37.9208 1444.82 46.2634 1444.82 55.061L1444.59 107.847C1444.59 115.279 1444.82 121.347 1445.27 126.049C1445.73 130.751 1446.11 134.771 1446.41 138.108L1461.42 141.293V151.077L1422.75 161.543ZM1399.78 139.018C1402.21 139.018 1404.94 138.259 1407.97 136.743C1411.15 135.226 1413.88 132.723 1416.16 129.234V78.4961C1414.04 75.6141 1411.53 73.6422 1408.65 72.5805C1405.77 71.367 1402.89 70.7603 1400.01 70.7603C1392.88 70.7603 1386.97 73.7181 1382.27 79.6337C1377.72 85.5494 1375.44 93.6644 1375.44 103.979C1375.44 115.203 1377.79 123.849 1382.49 129.917C1387.35 135.984 1393.11 139.018 1399.78 139.018Z" fill="black"/>
<path d="M1246.93 159.267L1246.25 148.801L1260.35 144.933C1260.5 144.327 1260.65 142.962 1260.8 140.838C1260.95 138.563 1261.11 135.832 1261.26 132.647C1261.41 129.31 1261.49 125.821 1261.49 122.181L1261.71 105.117C1261.71 100.566 1261.56 96.5464 1261.26 93.0577C1260.95 89.4173 1260.42 85.6252 1259.67 81.6815L1245.11 78.4961V68.2575L1284.46 58.0189L1290.37 61.8868L1289.46 79.8613L1290.15 80.0888C1294.54 71.5945 1298.94 65.8305 1303.34 62.7969C1307.89 59.7632 1312.51 58.2464 1317.21 58.2464C1321.31 58.2464 1324.87 59.384 1327.9 61.6593C1331.09 63.9345 1332.68 67.4991 1332.68 72.3529C1332.68 77.2068 1331.01 80.9989 1327.68 83.7292C1324.34 86.4595 1320.47 87.8246 1316.08 87.8246C1312.44 87.8246 1309.18 87.2179 1306.29 86.0044C1303.41 84.6393 1300.23 82.2882 1296.74 78.9512L1303.11 79.6337C1300.84 81.3022 1298.64 83.4258 1296.51 86.0044C1294.39 88.583 1292.57 91.5409 1291.06 94.8779L1291.28 112.852C1291.43 118.465 1291.51 123.546 1291.51 128.097C1291.66 132.495 1291.81 136.212 1291.96 139.245C1292.12 142.127 1292.27 144.023 1292.42 144.933L1312.21 148.346L1311.53 159.267H1246.93Z" fill="black"/>
<path d="M1182.56 160.405C1171.94 160.405 1162.62 158.282 1154.58 154.034C1146.54 149.636 1140.25 143.644 1135.7 136.06C1131.15 128.324 1128.88 119.526 1128.88 109.667C1128.88 98.4424 1131.45 88.8864 1136.61 80.9989C1141.77 73.1113 1148.51 67.1198 1156.85 63.0244C1165.19 58.9289 1174.07 56.8812 1183.47 56.8812C1193.48 56.8812 1202.27 59.0048 1209.85 63.2519C1217.59 67.499 1223.58 73.4905 1227.82 81.2264C1232.22 88.8106 1234.42 97.5323 1234.42 107.392C1234.42 117.403 1232.07 126.428 1227.37 134.467C1222.82 142.355 1216.6 148.65 1208.71 153.352C1200.83 158.054 1192.11 160.405 1182.56 160.405ZM1184.83 145.843C1188.62 145.843 1191.81 144.63 1194.39 142.203C1197.11 139.776 1199.16 136.212 1200.53 131.509C1202.04 126.807 1202.8 121.195 1202.8 114.673C1202.8 101.628 1200.68 91.01 1196.43 82.8191C1192.34 74.6282 1186.8 70.5327 1179.83 70.5327C1174.07 70.5327 1169.52 73.4905 1166.18 79.4062C1162.84 85.1702 1161.18 93.0577 1161.18 103.069C1161.18 111.108 1162.16 118.389 1164.13 124.911C1166.26 131.434 1169.06 136.591 1172.55 140.383C1176.19 144.023 1180.28 145.843 1184.83 145.843Z" fill="black"/>
<path d="M1011.27 67.3474L972.379 159.267H960.324L909.145 40.0444L897.545 36.404L898.227 25.0277H955.319L956.002 36.404L944.629 40.0444L980.567 128.552H969.649L1001.49 47.3252L1011.27 67.3474ZM1044.71 159.267L992.85 40.0444L981.477 36.404L982.16 25.0277H1041.07L1041.75 36.404L1027.42 40.0444L1064.04 128.552H1054.49L1087.7 40.0444L1072.23 36.404L1072.92 25.0277H1119.32L1120 36.404L1108.4 40.0444L1056.77 159.267H1044.71Z" fill="black"/>
<path d="M805.886 160.405C796.03 160.405 787.235 158.206 779.501 153.807C771.919 149.408 765.929 143.417 761.532 135.832C757.286 128.248 755.163 119.678 755.163 110.122C755.163 99.5042 757.589 90.2516 762.442 82.364C767.294 74.3248 773.587 68.03 781.321 63.4795C789.206 58.929 797.622 56.7296 806.569 56.8812C819.913 56.8812 830.224 61.0525 837.503 69.3951C844.782 77.586 848.421 88.2797 848.421 101.476V106.937H784.848H781.548V95.1054H784.848H826.13L822.718 100.566V92.8302C822.718 85.7011 821.126 80.0129 817.942 75.7658C814.757 71.5187 810.36 69.3951 804.749 69.3951C800.958 69.3951 797.546 70.4569 794.513 72.5805C791.481 74.704 789.054 77.9652 787.235 82.364C785.567 86.6112 784.733 91.9959 784.733 98.5183V103.296C784.733 104.538 784.771 105.751 784.848 106.937C785.427 115.89 788.194 123.247 793.149 129.007C798.911 135.529 806.569 138.79 816.122 138.79C821.278 138.79 825.979 137.88 830.224 136.06C834.47 134.088 838.565 130.827 842.507 126.276L849.558 132.647C845.313 141.748 839.323 148.65 831.589 153.352C823.856 158.054 815.288 160.405 805.886 160.405Z" fill="black"/>
<path d="M617.778 158.585L617.095 148.119L631.198 144.251C631.349 143.644 631.501 142.279 631.653 140.155C631.804 138.032 631.956 135.377 632.108 132.192C632.259 128.855 632.335 125.29 632.335 121.498L632.562 104.206C632.562 99.5042 632.411 95.4088 632.108 91.9201C631.804 88.4313 631.274 84.791 630.515 80.9989L615.958 77.8135V67.5749L655.991 57.3363L662.132 61.2042L660.767 74.6282L661.45 74.8557C666.151 68.7884 671.306 64.3137 676.917 61.4317C682.679 58.3981 688.745 56.8812 695.114 56.8812C701.634 56.8812 707.396 58.4739 712.4 61.6593C717.556 64.8446 721.65 69.5468 724.683 75.7658C727.716 81.8331 729.232 89.1898 729.232 97.8357V121.271C729.232 126.428 729.308 131.282 729.46 135.832C729.612 140.231 729.915 143.037 730.37 144.251L744.472 148.119L743.79 158.585H686.698L686.015 148.119L698.98 144.251C699.284 142.886 699.511 140.99 699.663 138.563C699.814 135.984 699.89 133.178 699.89 130.144C700.042 127.111 700.118 124.229 700.118 121.498V102.386C700.118 96.6222 699.208 91.9959 697.388 88.5072C695.72 84.8668 693.446 82.2123 690.564 80.5438C687.835 78.8753 684.651 78.041 681.011 78.041C677.22 78.041 673.657 78.8753 670.321 80.5438C667.136 82.2123 664.255 84.6393 661.677 87.8246V121.271C661.677 126.428 661.753 131.282 661.905 135.832C662.208 140.231 662.511 143.037 662.815 144.251L676.689 148.119L676.007 158.585H617.778Z" fill="black"/>
<path d="M534.528 160.633C520.578 160.633 508.143 157.751 497.225 151.987C486.459 146.223 477.967 138.335 471.75 128.324C465.684 118.161 462.651 106.558 462.651 93.5128C462.651 79.8613 465.684 67.7266 471.75 57.1088C477.967 46.491 486.535 38.1484 497.453 32.081C508.371 26.0137 520.729 22.98 534.528 22.98C548.176 22.98 560.155 25.862 570.467 31.626C580.778 37.2383 588.815 45.05 594.577 55.0611C600.491 65.0722 603.448 76.7518 603.448 90.0999C603.448 101.78 601.325 112.018 597.079 120.816C592.834 129.613 587.223 136.97 580.248 142.886C573.424 148.801 565.993 153.276 557.957 156.31C549.92 159.192 542.11 160.633 534.528 160.633ZM536.121 143.796C543.248 143.796 549.162 141.976 553.862 138.335C558.563 134.543 562.051 129.083 564.325 121.953C566.752 114.673 567.965 105.951 567.965 95.788C567.965 84.1084 566.448 73.9456 563.416 65.2997C560.534 56.6537 556.364 49.9797 550.905 45.2775C545.598 40.4236 539.229 37.9967 531.799 37.9967C521.487 37.9967 513.375 42.3197 507.461 50.9656C501.547 59.6116 498.59 71.5945 498.59 86.9146C498.59 98.1391 500.182 107.999 503.366 116.493C506.551 124.987 510.948 131.661 516.559 136.515C522.321 141.369 528.842 143.796 536.121 143.796Z" fill="black"/>
<path d="M398.99 154.945C405.055 151.001 409.225 145.768 411.5 139.245L405.586 132.875C403.615 134.695 401.264 136.212 398.535 137.425C395.805 138.487 393 139.018 390.119 139.018C384.66 139.018 380.414 137.653 377.381 134.922C374.348 132.04 372.832 127.414 372.832 121.043L373.237 73.0355H405.131V58.7014H373.406L373.742 35.0388H366.69L327.795 65.9822V73.0355H343.717L343.035 123.774C343.035 136.06 346.371 145.313 353.043 151.532C359.867 157.599 368.51 160.633 378.973 160.633C386.403 160.633 393.076 158.737 398.99 154.945Z" fill="black"/>
<path d="M275.963 160.405C269.594 160.405 263.301 159.723 257.084 158.357C250.867 156.841 245.635 154.944 241.389 152.669L240.252 126.049H254.809L259.586 142.431C265.348 145.768 271.338 147.436 277.555 147.436C282.256 147.436 285.82 146.526 288.246 144.706C290.672 142.734 291.885 140.155 291.885 136.97C291.885 133.633 290.52 130.751 287.791 128.324C285.213 125.897 279.83 123.167 271.641 120.133C260.42 116.038 252.611 111.563 248.213 106.709C243.815 101.855 241.617 95.788 241.617 88.5072C241.617 82.2882 243.512 76.8276 247.303 72.1254C251.094 67.2715 256.402 63.5553 263.225 60.9767C270.049 58.2464 277.934 56.8812 286.881 56.8812C291.733 56.8812 296.662 57.3363 301.666 58.2464C306.67 59.1565 310.764 60.3699 313.949 61.8868L316.678 88.2797H302.121L297.117 72.1254C295.6 71.2153 293.705 70.5327 291.43 70.0777C289.307 69.4709 287.26 69.1676 285.289 69.1676C280.74 69.1676 277.024 70.1535 274.143 72.1254C271.414 74.0973 270.049 76.7517 270.049 80.0888C270.049 83.7292 271.717 86.7628 275.053 89.1898C278.389 91.6167 284.455 94.6504 293.25 98.2908C303.258 102.386 310.385 106.785 314.631 111.487C318.877 116.038 321 121.726 321 128.552C321 138.108 316.83 145.843 308.49 151.759C300.149 157.523 289.307 160.405 275.963 160.405Z" fill="black"/>
<path d="M214.002 138.563L229.014 141.748V151.532L190.346 161.998L184.205 158.585L184.432 142.658L183.75 142.431C179.352 149.408 174.576 154.338 169.42 157.22C164.416 159.95 159.184 161.315 153.725 161.315C142.807 161.315 133.936 157.902 127.113 151.077C120.289 144.099 116.877 133.785 116.877 120.133V100.794C116.877 97.4566 116.801 94.1954 116.65 91.01C116.498 87.8247 116.27 84.6393 115.967 81.454L100.5 78.2686V68.03L141.443 57.7914L147.811 61.6593C147.508 66.2098 147.205 71.6704 146.902 78.0411C146.598 84.4118 146.447 90.9342 146.447 97.6082L146.219 116.72C146.219 124.608 147.963 130.372 151.451 134.012C154.938 137.653 159.715 139.473 165.781 139.473C168.813 139.473 171.922 138.639 175.106 136.97C178.443 135.302 181.248 132.571 183.522 128.779V106.709C183.522 103.069 183.522 99.8835 183.522 97.1532C183.522 94.2712 183.371 91.6168 183.068 89.1898C182.916 86.6112 182.688 84.0326 182.385 81.454L166.236 78.2686V68.03L207.406 57.7914L213.547 61.6593C213.244 64.2379 213.016 67.1199 212.865 70.3053C212.865 73.4906 212.789 77.2068 212.637 81.454C212.637 85.5494 212.637 90.2516 212.637 95.5605V113.763C212.637 117.403 212.713 121.347 212.865 125.594C213.168 129.689 213.547 134.012 214.002 138.563Z" fill="black"/>
<path d="M75.0614 45.505C75.3646 42.3196 75.6679 40.4236 75.9712 39.8169L90.5286 36.404L89.8462 25.0277H27.0676L26.3852 36.404L42.3073 39.5893C42.6106 40.3478 42.8381 42.4713 42.9897 45.96C43.293 49.2971 43.5204 53.4684 43.6721 58.4739C43.8237 63.3278 43.8995 68.5608 43.8995 74.1731L44.127 163.59C44.127 171.933 43.7479 178.304 42.9897 182.703C42.2315 187.101 40.8667 189.908 38.8954 191.121C38.5631 191.343 38.2003 191.536 37.8072 191.702L27.0676 181.565C24.3381 178.835 21.7602 176.863 19.334 175.649C16.7561 174.587 14.1024 174.057 11.3729 174.057C8.18851 174.057 5.53483 175.118 3.41188 177.242C1.13729 179.366 0 182.248 0 185.888C0 191.349 3.03278 195.823 9.09835 199.312C15.1639 202.952 22.8217 204.772 32.0717 204.772C40.7151 204.772 48.2212 202.801 54.5901 198.857C61.1106 195.065 66.1147 189.604 69.6024 182.475C73.0901 175.498 74.8339 167.231 74.8339 157.675L74.6065 74.8557V57.7913C74.7581 52.7858 74.9097 48.6903 75.0614 45.505Z" fill="black"/>
<path d="M1490.78 108.074L1477.36 33.6737C1476.3 27.1513 1476.38 21.3873 1477.59 16.3818C1478.96 11.3762 1481.31 7.50829 1484.64 4.77799C1487.98 1.89601 1492.15 0.455017 1497.15 0.455017C1502.31 0.455017 1506.56 1.89601 1509.89 4.77799C1513.23 7.50829 1515.5 11.3762 1516.72 16.3818C1518.08 21.3873 1518.23 27.1513 1517.17 33.6737L1503.75 108.074H1490.78ZM1497.15 161.543C1493.21 161.543 1489.65 160.633 1486.46 158.812C1483.28 156.992 1480.7 154.565 1478.73 151.532C1476.91 148.346 1476 144.782 1476 140.838C1476 136.894 1476.91 133.33 1478.73 130.144C1480.7 126.959 1483.28 124.456 1486.46 122.636C1489.65 120.664 1493.21 119.678 1497.15 119.678C1501.1 119.678 1504.66 120.664 1507.84 122.636C1511.18 124.456 1513.76 126.959 1515.58 130.144C1517.55 133.33 1518.53 136.894 1518.53 140.838C1518.53 146.602 1516.49 151.532 1512.39 155.627C1508.3 159.571 1503.22 161.543 1497.15 161.543Z" fill="black"/>
<path d="M429.137 246.983C429.09 246.937 429.066 246.726 429.066 246.351C429.066 245.413 429.23 244.944 429.559 244.944C429.934 244.944 430.449 244.874 431.105 244.733C431.809 244.546 432.465 244.335 433.074 244.101C433.684 243.866 434.035 243.608 434.129 243.327C434.785 241.921 435.395 239.741 435.957 236.788L441.02 210.632C441.254 209.272 441.441 208.054 441.582 206.976C441.723 205.897 441.793 204.937 441.793 204.093C441.793 203.858 441.535 203.624 441.02 203.39C440.504 203.108 439.941 202.874 439.332 202.687C438.723 202.499 438.23 202.405 437.855 202.405C437.762 202.405 437.715 202.312 437.715 202.124C437.715 201.374 437.879 200.835 438.207 200.507C439.941 200.554 441.793 200.601 443.762 200.647C445.777 200.647 447.746 200.647 449.668 200.647C451.637 200.601 453.395 200.577 454.941 200.577C456.816 200.577 458.645 200.882 460.426 201.491C462.207 202.101 463.684 203.085 464.855 204.444C466.027 205.757 466.613 207.491 466.613 209.647C466.613 212.319 465.793 214.616 464.152 216.538C462.559 218.413 460.566 219.96 458.176 221.179L457.754 221.39C458.691 221.53 459.746 222.093 460.918 223.077C462.09 224.015 463.098 225.233 463.941 226.733C464.785 228.233 465.207 229.874 465.207 231.655C465.207 234.187 464.434 236.624 462.887 238.968C461.387 241.265 459.184 243.14 456.277 244.593C453.418 246.046 449.926 246.772 445.801 246.772H436.871L429.137 246.983ZM449.105 220.546C450.605 220.546 451.895 220.452 452.973 220.265C454.051 220.077 455.246 219.679 456.559 219.069C459.277 217.804 460.637 214.944 460.637 210.491C460.637 205.804 458.223 203.46 453.395 203.46C450.02 203.46 448.262 203.765 448.121 204.374L444.957 219.632C444.816 220.241 446.199 220.546 449.105 220.546ZM446.082 243.89C449.082 243.89 451.52 243.304 453.395 242.132C455.27 240.96 456.652 239.46 457.543 237.632C458.434 235.804 458.879 233.905 458.879 231.937C458.879 229.452 458.105 227.437 456.559 225.89C455.012 224.296 452.527 223.499 449.105 223.499C445.777 223.499 444.043 223.851 443.902 224.554L441.23 238.616C441.09 239.319 440.996 239.952 440.949 240.515C440.902 241.077 440.879 241.569 440.879 241.991C440.879 242.835 441.324 243.374 442.215 243.608C443.105 243.796 444.395 243.89 446.082 243.89Z" fill="black"/>
<path d="M481.098 208.382C480.207 208.382 479.551 208.124 479.129 207.608C478.707 207.046 478.496 206.39 478.496 205.64C478.496 204.655 478.824 203.694 479.48 202.757C480.184 201.819 481.191 201.351 482.504 201.351C483.395 201.351 484.027 201.632 484.402 202.194C484.824 202.71 485.035 203.343 485.035 204.093C485.035 205.077 484.684 206.038 483.98 206.976C483.324 207.913 482.363 208.382 481.098 208.382ZM480.254 216.187C481.004 216.187 481.59 216.538 482.012 217.241C482.434 217.897 482.645 218.765 482.645 219.843C482.645 220.827 482.504 222.069 482.223 223.569L479.34 238.335C479.293 238.616 479.199 239.085 479.059 239.741C478.965 240.351 478.918 240.843 478.918 241.218C478.918 242.296 479.152 242.835 479.621 242.835C479.996 242.835 480.441 242.624 480.957 242.202C481.52 241.78 482.059 241.312 482.574 240.796C483.137 240.233 483.559 239.788 483.84 239.46L484.262 238.968C484.355 238.968 484.52 239.202 484.754 239.671C485.035 240.093 485.176 240.397 485.176 240.585C484.801 241.241 484.074 242.108 482.996 243.187C481.965 244.218 480.84 245.155 479.621 245.999C478.402 246.796 477.301 247.194 476.316 247.194C475.566 247.194 474.98 246.866 474.559 246.21C474.137 245.507 473.926 244.616 473.926 243.538C473.926 243.163 473.949 242.671 473.996 242.062C474.09 241.452 474.23 240.702 474.418 239.812L477.301 225.116C477.441 224.366 477.535 223.757 477.582 223.288C477.629 222.819 477.652 222.491 477.652 222.304C477.652 221.132 477.418 220.546 476.949 220.546C476.574 220.546 475.988 220.897 475.191 221.601C474.441 222.304 473.855 222.913 473.434 223.429L473.082 223.851C472.988 223.851 472.801 223.64 472.52 223.218C472.285 222.749 472.168 222.421 472.168 222.233C472.543 221.577 473.223 220.78 474.207 219.843C475.191 218.905 476.246 218.062 477.371 217.312C478.496 216.562 479.457 216.187 480.254 216.187Z" fill="black"/>
<path d="M497.551 247.194C495.77 247.194 494.152 246.538 492.699 245.226C491.293 243.866 490.59 241.944 490.59 239.46C490.59 238.757 490.66 237.983 490.801 237.14L496.637 207.468C496.824 206.53 496.965 205.757 497.059 205.147C497.199 204.491 497.27 204.022 497.27 203.741C497.27 202.851 495.84 202.405 492.98 202.405C492.84 202.405 492.77 202.265 492.77 201.983C492.77 201.421 492.957 200.952 493.332 200.577C496.426 200.296 499.379 199.64 502.191 198.608C502.473 198.749 502.613 199.194 502.613 199.944C502.613 200.226 502.543 200.812 502.402 201.702C502.262 202.546 502.027 203.718 501.699 205.218L497.551 225.468C499.332 222.468 501.207 220.171 503.176 218.577C505.191 216.983 506.902 216.187 508.309 216.187C510.371 216.187 511.918 217.101 512.949 218.929C514.027 220.757 514.566 222.913 514.566 225.397C514.566 228.397 514.051 231.21 513.02 233.835C512.035 236.46 510.723 238.78 509.082 240.796C507.441 242.812 505.613 244.382 503.598 245.507C501.582 246.632 499.566 247.194 497.551 247.194ZM499.379 244.312C500.645 244.312 501.863 243.843 503.035 242.905C504.254 241.921 505.332 240.608 506.27 238.968C507.207 237.327 507.957 235.476 508.52 233.413C509.082 231.351 509.363 229.241 509.363 227.085C509.363 225.96 509.316 224.858 509.223 223.78C509.129 222.702 508.871 221.812 508.449 221.108C508.027 220.405 507.301 220.054 506.27 220.054C505.566 220.054 504.699 220.546 503.668 221.53C502.637 222.515 501.559 223.804 500.434 225.397C499.355 226.991 498.371 228.702 497.48 230.53C496.637 232.358 496.051 234.116 495.723 235.804C495.207 238.382 495.277 240.444 495.934 241.991C496.59 243.538 497.738 244.312 499.379 244.312Z" fill="black"/>
<path d="M522.582 247.194C521.879 247.194 521.293 246.866 520.824 246.21C520.402 245.507 520.191 244.616 520.191 243.538C520.191 243.163 520.215 242.671 520.262 242.062C520.355 241.405 520.496 240.655 520.684 239.812L527.293 205.71C527.434 205.007 527.504 204.351 527.504 203.741C527.504 202.851 526.074 202.405 523.215 202.405C523.074 202.405 523.004 202.265 523.004 201.983C523.004 201.421 523.191 200.952 523.566 200.577C525.16 200.437 526.707 200.202 528.207 199.874C529.707 199.546 531.16 199.124 532.566 198.608C532.848 198.749 532.988 199.194 532.988 199.944C532.988 200.226 532.895 200.812 532.707 201.702C532.566 202.546 532.355 203.718 532.074 205.218L525.395 239.319C525.254 239.882 525.184 240.468 525.184 241.077C525.184 242.249 525.418 242.835 525.887 242.835C526.168 242.835 526.496 242.718 526.871 242.483C527.293 242.202 527.715 241.874 528.137 241.499C528.84 240.89 529.402 240.327 529.824 239.812C530.293 239.249 530.527 238.968 530.527 238.968C530.668 238.968 530.855 239.202 531.09 239.671C531.324 240.093 531.441 240.397 531.441 240.585C531.066 241.241 530.34 242.108 529.262 243.187C528.23 244.218 527.105 245.155 525.887 245.999C524.668 246.796 523.566 247.194 522.582 247.194Z" fill="black"/>
<path d="M544.73 208.382C543.84 208.382 543.184 208.124 542.762 207.608C542.34 207.046 542.129 206.39 542.129 205.64C542.129 204.655 542.457 203.694 543.113 202.757C543.816 201.819 544.824 201.351 546.137 201.351C547.027 201.351 547.66 201.632 548.035 202.194C548.457 202.71 548.668 203.343 548.668 204.093C548.668 205.077 548.316 206.038 547.613 206.976C546.957 207.913 545.996 208.382 544.73 208.382ZM543.887 216.187C544.637 216.187 545.223 216.538 545.645 217.241C546.066 217.897 546.277 218.765 546.277 219.843C546.277 220.827 546.137 222.069 545.855 223.569L542.973 238.335C542.926 238.616 542.832 239.085 542.691 239.741C542.598 240.351 542.551 240.843 542.551 241.218C542.551 242.296 542.785 242.835 543.254 242.835C543.629 242.835 544.074 242.624 544.59 242.202C545.152 241.78 545.691 241.312 546.207 240.796C546.77 240.233 547.191 239.788 547.473 239.46L547.895 238.968C547.988 238.968 548.152 239.202 548.387 239.671C548.668 240.093 548.809 240.397 548.809 240.585C548.434 241.241 547.707 242.108 546.629 243.187C545.598 244.218 544.473 245.155 543.254 245.999C542.035 246.796 540.934 247.194 539.949 247.194C539.199 247.194 538.613 246.866 538.191 246.21C537.77 245.507 537.559 244.616 537.559 243.538C537.559 243.163 537.582 242.671 537.629 242.062C537.723 241.452 537.863 240.702 538.051 239.812L540.934 225.116C541.074 224.366 541.168 223.757 541.215 223.288C541.262 222.819 541.285 222.491 541.285 222.304C541.285 221.132 541.051 220.546 540.582 220.546C540.207 220.546 539.621 220.897 538.824 221.601C538.074 222.304 537.488 222.913 537.066 223.429L536.715 223.851C536.621 223.851 536.434 223.64 536.152 223.218C535.918 222.749 535.801 222.421 535.801 222.233C536.176 221.577 536.855 220.78 537.84 219.843C538.824 218.905 539.879 218.062 541.004 217.312C542.129 216.562 543.09 216.187 543.887 216.187Z" fill="black"/>
<path d="M560.762 247.194C558.324 247.194 556.449 246.257 555.137 244.382C553.871 242.46 553.238 239.835 553.238 236.507C553.238 234.257 553.684 231.96 554.574 229.616C555.512 227.226 556.73 225.022 558.23 223.007C559.777 220.944 561.465 219.304 563.293 218.085C565.121 216.819 566.973 216.187 568.848 216.187C571.051 216.187 573.09 216.983 574.965 218.577C575.105 219.14 575.176 219.608 575.176 219.983C575.176 220.499 575.012 221.132 574.684 221.882C574.355 222.632 573.723 223.007 572.785 223.007C572.035 223.007 571.449 222.679 571.027 222.022C570.605 221.366 570.184 220.71 569.762 220.054C569.34 219.397 568.754 219.069 568.004 219.069C566.691 219.069 565.285 219.796 563.785 221.249C562.285 222.702 561.02 224.671 559.988 227.155C558.957 229.593 558.441 232.335 558.441 235.382C558.441 240.351 559.988 242.835 563.082 242.835C564.113 242.835 565.145 242.507 566.176 241.851C567.207 241.194 568.145 240.444 568.988 239.601L569.621 238.968C569.715 238.968 569.879 239.202 570.113 239.671C570.395 240.093 570.535 240.397 570.535 240.585C570.113 241.241 569.387 242.108 568.355 243.187C567.371 244.218 566.199 245.155 564.84 245.999C563.527 246.796 562.168 247.194 560.762 247.194Z" fill="black"/>
<path d="M595.566 247.194C594.816 247.194 594.23 246.866 593.809 246.21C593.387 245.507 593.176 244.616 593.176 243.538C593.176 243.163 593.199 242.671 593.246 242.062C593.34 241.405 593.48 240.655 593.668 239.812L594.02 237.983C593.41 239.108 592.566 240.397 591.488 241.851C590.41 243.257 589.215 244.499 587.902 245.577C586.637 246.608 585.371 247.124 584.105 247.124C582.043 247.124 580.402 246.21 579.184 244.382C578.012 242.507 577.426 240.257 577.426 237.632C577.426 235.007 578.012 232.429 579.184 229.897C580.355 227.366 581.902 225.069 583.824 223.007C585.793 220.944 587.973 219.304 590.363 218.085C592.754 216.819 595.145 216.187 597.535 216.187C599.41 216.187 601.121 216.491 602.668 217.101L598.59 238.265C598.449 239.062 598.332 239.671 598.238 240.093C598.191 240.468 598.168 240.866 598.168 241.288C598.168 242.319 598.402 242.835 598.871 242.835C599.246 242.835 599.691 242.624 600.207 242.202C600.77 241.78 601.309 241.312 601.824 240.796C602.387 240.233 602.809 239.788 603.09 239.46L603.512 238.968C603.605 238.968 603.77 239.202 604.004 239.671C604.285 240.093 604.426 240.397 604.426 240.585C604.051 241.241 603.348 242.108 602.316 243.187C601.285 244.218 600.16 245.155 598.941 245.999C597.723 246.796 596.598 247.194 595.566 247.194ZM586.215 243.046C587.105 243.046 588.043 242.577 589.027 241.64C590.012 240.702 590.973 239.46 591.91 237.913C592.848 236.366 593.691 234.679 594.441 232.851C595.191 231.022 595.73 229.241 596.059 227.507L597.465 220.335C596.902 219.726 595.941 219.421 594.582 219.421C593.176 219.421 591.77 219.913 590.363 220.897C588.957 221.882 587.668 223.194 586.496 224.835C585.324 226.429 584.387 228.233 583.684 230.249C582.98 232.218 582.629 234.187 582.629 236.155C582.629 240.749 583.824 243.046 586.215 243.046Z" fill="black"/>
<path d="M613.355 247.194C612.652 247.194 612.066 246.866 611.598 246.21C611.176 245.507 610.965 244.616 610.965 243.538C610.965 243.163 610.988 242.671 611.035 242.062C611.129 241.405 611.27 240.655 611.457 239.812L618.066 205.71C618.207 205.007 618.277 204.351 618.277 203.741C618.277 202.851 616.848 202.405 613.988 202.405C613.848 202.405 613.777 202.265 613.777 201.983C613.777 201.421 613.965 200.952 614.34 200.577C615.934 200.437 617.48 200.202 618.98 199.874C620.48 199.546 621.934 199.124 623.34 198.608C623.621 198.749 623.762 199.194 623.762 199.944C623.762 200.226 623.668 200.812 623.48 201.702C623.34 202.546 623.129 203.718 622.848 205.218L616.168 239.319C616.027 239.882 615.957 240.468 615.957 241.077C615.957 242.249 616.191 242.835 616.66 242.835C616.941 242.835 617.27 242.718 617.645 242.483C618.066 242.202 618.488 241.874 618.91 241.499C619.613 240.89 620.176 240.327 620.598 239.812C621.066 239.249 621.301 238.968 621.301 238.968C621.441 238.968 621.629 239.202 621.863 239.671C622.098 240.093 622.215 240.397 622.215 240.585C621.84 241.241 621.113 242.108 620.035 243.187C619.004 244.218 617.879 245.155 616.66 245.999C615.441 246.796 614.34 247.194 613.355 247.194Z" fill="black"/>
<path d="M662.855 247.687C662.621 247.687 662.434 247.569 662.293 247.335L652.309 210.913C651.934 209.507 651.535 208.241 651.113 207.116C650.691 205.991 650.27 205.007 649.848 204.163C649.613 203.694 649.098 203.296 648.301 202.968C647.551 202.593 646.941 202.405 646.473 202.405C646.379 202.405 646.332 202.288 646.332 202.054C646.332 201.21 646.496 200.694 646.824 200.507L649.988 200.718C650.645 200.765 651.277 200.812 651.887 200.858C652.543 200.905 653.152 200.929 653.715 200.929C655.121 200.929 656.504 200.882 657.863 200.788C659.27 200.647 660.418 200.554 661.309 200.507V200.718C661.309 201.843 661.145 202.405 660.816 202.405C659.691 202.405 658.801 202.663 658.145 203.179C657.488 203.694 657.16 204.304 657.16 205.007C657.16 205.476 657.324 206.343 657.652 207.608L666.582 238.897L675.09 226.03L669.887 207.397C669.699 206.741 669.488 206.155 669.254 205.64C669.02 205.077 668.785 204.585 668.551 204.163C668.27 203.694 667.73 203.296 666.934 202.968C666.184 202.593 665.574 202.405 665.105 202.405C665.012 202.405 664.965 202.288 664.965 202.054C664.965 201.304 665.152 200.788 665.527 200.507C665.949 200.507 666.582 200.554 667.426 200.647C668.316 200.694 669.277 200.765 670.309 200.858C671.34 200.905 672.23 200.929 672.98 200.929C673.73 200.929 674.598 200.905 675.582 200.858C676.566 200.765 677.48 200.694 678.324 200.647C679.168 200.554 679.73 200.507 680.012 200.507V200.718C680.012 201.046 679.941 201.421 679.801 201.843C679.707 202.218 679.59 202.405 679.449 202.405C678.324 202.405 677.434 202.663 676.777 203.179C676.168 203.694 675.863 204.304 675.863 205.007C675.863 205.616 676.004 206.483 676.285 207.608L679.449 218.929L685.426 209.226C686.598 207.351 687.184 205.968 687.184 205.077C687.184 204.187 686.762 203.53 685.918 203.108C685.121 202.64 684.465 202.405 683.949 202.405C683.855 202.405 683.809 202.288 683.809 202.054C683.809 201.21 683.973 200.694 684.301 200.507C688.379 200.788 690.605 200.929 690.98 200.929C692.34 200.929 693.746 200.858 695.199 200.718C696.699 200.577 697.637 200.507 698.012 200.507C698.012 201.772 697.848 202.405 697.52 202.405C697.051 202.405 696.441 202.546 695.691 202.827C694.988 203.062 694.332 203.366 693.723 203.741C693.113 204.116 692.668 204.444 692.387 204.726C691.496 205.663 689.855 208.007 687.465 211.757L680.434 222.585L685.215 239.319L702.301 209.226C703.473 207.21 704.059 205.827 704.059 205.077C704.059 204.187 703.637 203.53 702.793 203.108C701.996 202.64 701.34 202.405 700.824 202.405C700.73 202.405 700.684 202.288 700.684 202.054C700.684 201.21 700.848 200.694 701.176 200.507C705.254 200.788 707.48 200.929 707.855 200.929C709.215 200.929 710.621 200.858 712.074 200.718C713.574 200.577 714.512 200.507 714.887 200.507C714.887 201.772 714.723 202.405 714.395 202.405C713.926 202.405 713.316 202.546 712.566 202.827C711.863 203.062 711.207 203.366 710.598 203.741C709.988 204.116 709.543 204.444 709.262 204.726C708.512 205.616 707.715 206.647 706.871 207.819C706.027 208.944 705.184 210.257 704.34 211.757L684.582 245.437C683.738 246.937 682.73 247.687 681.559 247.687C681.277 247.687 681.09 247.569 680.996 247.335L676.074 229.546L665.809 245.437C664.824 246.937 663.84 247.687 662.855 247.687Z" fill="black"/>
<path d="M713.199 247.124C710.387 247.124 708.23 246.21 706.73 244.382C705.277 242.554 704.551 239.952 704.551 236.577C704.551 234.14 705.02 231.726 705.957 229.335C706.895 226.897 708.113 224.694 709.613 222.726C711.16 220.757 712.824 219.187 714.605 218.015C716.434 216.796 718.238 216.187 720.02 216.187C722.785 216.187 724.918 217.147 726.418 219.069C727.965 220.991 728.738 223.64 728.738 227.015C728.738 229.405 728.27 231.796 727.332 234.187C726.395 236.577 725.152 238.757 723.605 240.726C722.105 242.647 720.441 244.194 718.613 245.366C716.785 246.538 714.98 247.124 713.199 247.124ZM714.465 244.241C715.637 244.241 716.762 243.749 717.84 242.765C718.918 241.733 719.855 240.397 720.652 238.757C721.496 237.069 722.152 235.265 722.621 233.343C723.137 231.374 723.395 229.452 723.395 227.577C723.395 224.812 723.02 222.702 722.27 221.249C721.52 219.796 720.488 219.069 719.176 219.069C718.004 219.069 716.855 219.585 715.73 220.616C714.652 221.601 713.668 222.937 712.777 224.624C711.887 226.265 711.184 228.069 710.668 230.038C710.152 231.96 709.895 233.835 709.895 235.663C709.895 238.382 710.316 240.491 711.16 241.991C712.051 243.491 713.152 244.241 714.465 244.241Z" fill="black"/>
<path d="M737.598 246.983C736.707 246.983 735.84 246.913 734.996 246.772L739.215 225.116C739.543 223.429 739.637 222.257 739.496 221.601C739.402 220.897 739.191 220.546 738.863 220.546C738.676 220.546 738.418 220.663 738.09 220.897C737.809 221.085 737.48 221.343 737.105 221.671C736.496 222.187 735.98 222.679 735.559 223.147C735.184 223.616 734.996 223.851 734.996 223.851C734.902 223.851 734.715 223.64 734.434 223.218C734.199 222.749 734.082 222.421 734.082 222.233C734.457 221.577 735.137 220.78 736.121 219.843C737.105 218.905 738.16 218.062 739.285 217.312C740.41 216.562 741.371 216.187 742.168 216.187C742.918 216.187 743.504 216.538 743.926 217.241C744.348 217.897 744.559 218.765 744.559 219.843C744.559 220.827 744.418 222.069 744.137 223.569L743.012 229.476C743.621 228.116 744.348 226.71 745.191 225.257C746.082 223.757 747.113 222.257 748.285 220.757C750.535 217.71 752.551 216.187 754.332 216.187C755.785 216.187 757.004 216.937 757.988 218.437C757.988 221.577 757.145 223.147 755.457 223.147C755.082 223.147 754.754 223.007 754.473 222.726C754.238 222.397 753.957 222.093 753.629 221.812C753.348 221.53 752.949 221.39 752.434 221.39C751.73 221.39 750.816 221.952 749.691 223.077C748.613 224.202 747.488 225.679 746.316 227.507C745.145 229.335 744.09 231.304 743.152 233.413C742.262 235.476 741.629 237.468 741.254 239.39L739.918 246.772C739.168 246.913 738.395 246.983 737.598 246.983Z" fill="black"/>
<path d="M776.34 247.194C775.59 247.194 775.004 246.866 774.582 246.21C774.16 245.507 773.949 244.616 773.949 243.538C773.949 242.976 773.996 242.319 774.09 241.569C774.23 240.772 774.371 240.046 774.512 239.39C774.699 238.687 774.816 238.194 774.863 237.913C774.113 239.319 773.176 240.749 772.051 242.202C770.926 243.608 769.73 244.78 768.465 245.718C767.246 246.655 766.074 247.124 764.949 247.124C762.793 247.124 761.129 246.21 759.957 244.382C758.785 242.507 758.199 240.257 758.199 237.632C758.199 235.101 758.785 232.569 759.957 230.038C761.129 227.507 762.699 225.21 764.668 223.147C766.637 221.038 768.793 219.351 771.137 218.085C773.48 216.819 775.824 216.187 778.168 216.187H779.082L781.051 205.71C781.191 205.054 781.262 204.397 781.262 203.741C781.262 202.851 779.832 202.405 776.973 202.405C776.832 202.405 776.762 202.265 776.762 201.983C776.762 201.421 776.949 200.952 777.324 200.577C780.652 200.296 783.676 199.64 786.395 198.608C786.676 198.796 786.816 199.241 786.816 199.944L785.762 205.218L779.152 239.319C779.012 239.882 778.941 240.468 778.941 241.077C778.941 242.249 779.176 242.835 779.645 242.835C780.02 242.835 780.465 242.647 780.98 242.272C781.543 241.851 782.082 241.382 782.598 240.866C783.113 240.304 783.512 239.858 783.793 239.53L784.285 238.968C784.379 238.968 784.543 239.202 784.777 239.671C785.059 240.093 785.199 240.397 785.199 240.585C784.824 241.241 784.098 242.108 783.02 243.187C781.988 244.218 780.863 245.155 779.645 245.999C778.426 246.796 777.324 247.194 776.34 247.194ZM766.988 243.046C767.879 243.046 768.816 242.577 769.801 241.64C770.832 240.655 771.816 239.39 772.754 237.843C773.691 236.296 774.512 234.608 775.215 232.78C775.965 230.952 776.504 229.147 776.832 227.366L777.676 222.796C777.863 221.905 777.77 221.132 777.395 220.476C777.02 219.772 776.387 219.421 775.496 219.421C774.09 219.421 772.66 219.913 771.207 220.897C769.801 221.882 768.488 223.194 767.27 224.835C766.098 226.429 765.16 228.233 764.457 230.249C763.754 232.218 763.402 234.21 763.402 236.226C763.402 240.772 764.598 243.046 766.988 243.046Z" fill="black"/>
<path d="M793.566 247.194C790.895 247.194 788.785 246.304 787.238 244.522C787.004 244.147 786.887 243.702 786.887 243.187C786.887 242.343 787.098 241.593 787.52 240.937C787.988 240.28 788.574 239.952 789.277 239.952C789.934 239.952 790.52 240.28 791.035 240.937C791.551 241.64 792.184 242.343 792.934 243.046C793.73 243.749 794.762 244.101 796.027 244.101C797.059 244.101 797.879 243.772 798.488 243.116C799.145 242.413 799.473 241.663 799.473 240.866C799.473 239.647 799.004 238.358 798.066 236.999C797.176 235.593 796.191 234.351 795.113 233.272C794.035 232.194 793.027 230.882 792.09 229.335C791.199 227.788 790.754 226.218 790.754 224.624C790.754 223.312 791.176 221.999 792.02 220.687C792.91 219.327 794.082 218.202 795.535 217.312C797.035 216.421 798.699 215.976 800.527 215.976C803.199 215.976 805.309 216.866 806.855 218.647C807.09 219.257 807.207 219.749 807.207 220.124C807.207 220.968 806.973 221.694 806.504 222.304C806.082 222.913 805.52 223.218 804.816 223.218C804.16 223.218 803.574 222.866 803.059 222.163C802.543 221.507 801.887 220.827 801.09 220.124C800.34 219.421 799.332 219.069 798.066 219.069C797.082 219.069 796.309 219.397 795.746 220.054C795.184 220.71 794.902 221.46 794.902 222.304C794.902 223.522 795.348 224.835 796.238 226.241C797.176 227.601 798.184 228.819 799.262 229.897C800.34 230.976 801.324 232.288 802.215 233.835C803.152 235.382 803.621 236.952 803.621 238.546C803.621 241.124 802.684 243.21 800.809 244.804C798.934 246.397 796.52 247.194 793.566 247.194Z" fill="black"/>
<path d="M858.184 247.054C855.137 247.054 852.582 245.53 850.52 242.483C849.488 240.983 848.41 238.851 847.285 236.085C846.16 233.272 844.941 229.874 843.629 225.89C843.395 225.233 842.363 224.905 840.535 224.905C839.785 224.905 839.012 224.929 838.215 224.976C837.465 224.976 837.02 225.351 836.879 226.101L834.84 236.999C834.605 238.312 834.418 239.507 834.277 240.585C834.137 241.616 834.066 242.53 834.066 243.327C834.066 243.702 834.371 244.054 834.98 244.382C835.637 244.663 836.27 244.851 836.879 244.944L837.863 245.085C837.957 245.085 838.004 245.179 838.004 245.366C838.004 245.882 837.863 246.421 837.582 246.983C835.426 246.89 833.715 246.819 832.449 246.772C831.23 246.679 830.504 246.632 830.27 246.632L822.535 246.983C822.441 246.89 822.395 246.702 822.395 246.421C822.395 245.53 822.559 245.085 822.887 245.085C823.262 245.085 823.777 245.015 824.434 244.874C825.137 244.733 825.77 244.546 826.332 244.312C826.941 244.077 827.293 243.819 827.387 243.538C827.621 242.882 827.902 241.991 828.23 240.866C828.559 239.741 828.887 238.382 829.215 236.788L834.98 207.679C835.074 207.069 835.145 206.483 835.191 205.921C835.285 205.312 835.332 204.726 835.332 204.163C835.332 203.601 834.863 203.179 833.926 202.897C832.988 202.569 832.215 202.405 831.605 202.405C831.512 202.405 831.465 202.241 831.465 201.913C831.465 201.163 831.629 200.694 831.957 200.507C834.02 200.647 836.457 200.718 839.27 200.718C840.488 200.718 841.965 200.694 843.699 200.647C845.434 200.554 846.887 200.507 848.059 200.507C850.168 200.507 852.184 200.835 854.105 201.491C856.027 202.147 857.598 203.179 858.816 204.585C860.035 205.991 860.645 207.819 860.645 210.069C860.645 212.179 860.082 214.101 858.957 215.835C857.879 217.522 856.473 219.046 854.738 220.405C853.051 221.718 851.246 222.843 849.324 223.78C848.949 223.968 848.832 224.249 848.973 224.624C849.582 226.687 850.309 228.819 851.152 231.022C851.996 233.226 852.863 235.265 853.754 237.14C854.645 238.968 855.441 240.444 856.145 241.569C856.941 242.835 857.762 243.679 858.605 244.101C859.449 244.522 860.645 244.733 862.191 244.733C862.52 245.624 862.543 246.28 862.262 246.702C861.652 246.796 861.02 246.866 860.363 246.913C859.707 247.007 858.98 247.054 858.184 247.054ZM841.238 222.022C843.863 222.022 846.184 221.507 848.199 220.476C850.215 219.397 851.785 217.921 852.91 216.046C854.082 214.171 854.668 212.062 854.668 209.718C854.668 205.312 852.09 203.108 846.934 203.108C844.59 203.108 843.09 203.179 842.434 203.319C841.824 203.46 841.449 203.835 841.309 204.444L837.934 220.827V220.968C837.934 221.671 839.035 222.022 841.238 222.022Z" fill="black"/>
<path d="M876.746 247.194C874.309 247.194 872.434 246.257 871.121 244.382C869.855 242.46 869.223 239.835 869.223 236.507C869.223 234.257 869.691 231.96 870.629 229.616C871.566 227.226 872.809 225.022 874.355 223.007C875.902 220.944 877.59 219.304 879.418 218.085C881.246 216.819 883.051 216.187 884.832 216.187C886.988 216.187 888.535 216.749 889.473 217.874C890.457 218.952 890.949 220.147 890.949 221.46C890.949 223.476 889.895 225.515 887.785 227.577C886.379 228.89 884.855 230.038 883.215 231.022C881.621 231.96 880.074 232.687 878.574 233.202C877.074 233.671 875.809 233.905 874.777 233.905C874.59 233.905 874.496 234.726 874.496 236.366C874.496 238.476 874.895 240.093 875.691 241.218C876.535 242.296 877.66 242.835 879.066 242.835C880.332 242.835 881.457 242.46 882.441 241.71C883.473 240.96 884.457 240.116 885.395 239.179L885.605 238.968C885.699 238.968 885.863 239.202 886.098 239.671C886.379 240.093 886.52 240.397 886.52 240.585C886.098 241.335 885.348 242.226 884.27 243.257C883.191 244.288 881.996 245.202 880.684 245.999C879.371 246.796 878.059 247.194 876.746 247.194ZM875.27 231.444C876.113 231.444 877.121 231.14 878.293 230.53C879.512 229.921 880.684 229.124 881.809 228.14C882.98 227.108 883.941 225.983 884.691 224.765C885.488 223.546 885.887 222.351 885.887 221.179C885.887 219.772 885.301 219.069 884.129 219.069C883.004 219.069 881.902 219.538 880.824 220.476C879.746 221.366 878.762 222.491 877.871 223.851C877.027 225.163 876.324 226.499 875.762 227.858C875.246 229.218 874.988 230.319 874.988 231.163C874.988 231.351 875.082 231.444 875.27 231.444Z" fill="black"/>
<path d="M899.316 247.194C898.566 247.194 897.98 246.866 897.559 246.21C897.137 245.507 896.926 244.616 896.926 243.538C896.926 243.163 896.949 242.671 896.996 242.062C897.09 241.452 897.23 240.702 897.418 239.812L901.215 220.194H896.223C896.082 220.194 896.012 219.937 896.012 219.421C896.012 218.812 896.293 218.085 896.855 217.241H901.777L903.465 208.663C903.512 208.194 904.66 207.96 906.91 207.96C907.566 207.96 907.988 207.983 908.176 208.03L906.418 217.241H912.816C913.051 217.241 913.168 217.546 913.168 218.155C913.168 218.718 912.957 219.397 912.535 220.194H905.855L902.129 239.319C901.988 239.882 901.918 240.468 901.918 241.077C901.918 242.249 902.152 242.835 902.621 242.835C903.418 242.835 904.191 242.413 904.941 241.569C905.738 240.679 906.371 239.976 906.84 239.46L907.262 238.968C907.355 238.968 907.52 239.202 907.754 239.671C908.035 240.093 908.176 240.397 908.176 240.585C907.754 241.241 907.027 242.108 905.996 243.187C904.965 244.218 903.84 245.155 902.621 245.999C901.402 246.796 900.301 247.194 899.316 247.194Z" fill="black"/>
<path d="M936.793 247.194C936.043 247.194 935.457 246.866 935.035 246.21C934.613 245.507 934.402 244.616 934.402 243.538C934.402 243.163 934.426 242.671 934.473 242.062C934.566 241.452 934.707 240.702 934.895 239.812L937.355 228.21C937.543 227.413 937.66 226.71 937.707 226.101C937.801 225.444 937.848 224.882 937.848 224.413C937.848 222.397 937.402 221.39 936.512 221.39C935.762 221.39 934.73 221.976 933.418 223.147C932.105 224.319 930.746 225.866 929.34 227.788C927.934 229.71 926.645 231.843 925.473 234.187C924.348 236.53 923.527 238.897 923.012 241.288L921.816 246.772C921.254 246.96 920.527 247.054 919.637 247.054C918.746 247.054 917.949 246.96 917.246 246.772L924.84 207.468C925.262 205.405 925.473 204.163 925.473 203.741C925.473 202.851 924.043 202.405 921.184 202.405C921.043 202.405 920.973 202.265 920.973 201.983C920.973 201.421 921.16 200.952 921.535 200.577C924.723 200.296 927.676 199.64 930.395 198.608C930.676 198.749 930.816 199.194 930.816 199.944C930.816 200.132 930.746 200.671 930.605 201.562C930.465 202.405 930.23 203.624 929.902 205.218L925.051 230.038C925.285 229.616 925.66 229.054 926.176 228.351C926.691 227.601 927.348 226.71 928.145 225.679C929.176 224.272 930.395 222.843 931.801 221.39C933.207 219.937 934.59 218.718 935.949 217.733C937.309 216.702 938.457 216.187 939.395 216.187C941.738 216.187 942.91 217.733 942.91 220.827C942.91 221.858 942.816 223.03 942.629 224.343C942.488 225.608 942.254 226.991 941.926 228.491L939.605 239.319C939.465 239.882 939.395 240.468 939.395 241.077C939.395 242.249 939.629 242.835 940.098 242.835C940.895 242.835 941.668 242.413 942.418 241.569C943.215 240.679 943.848 239.976 944.316 239.46L944.738 238.968C944.832 238.968 944.996 239.202 945.23 239.671C945.512 240.093 945.652 240.397 945.652 240.585C945.277 241.241 944.551 242.108 943.473 243.187C942.441 244.218 941.316 245.155 940.098 245.999C938.879 246.796 937.777 247.194 936.793 247.194Z" fill="black"/>
<path d="M958.449 247.124C955.637 247.124 953.48 246.21 951.98 244.382C950.527 242.554 949.801 239.952 949.801 236.577C949.801 234.14 950.27 231.726 951.207 229.335C952.145 226.897 953.363 224.694 954.863 222.726C956.41 220.757 958.074 219.187 959.855 218.015C961.684 216.796 963.488 216.187 965.27 216.187C968.035 216.187 970.168 217.147 971.668 219.069C973.215 220.991 973.988 223.64 973.988 227.015C973.988 229.405 973.52 231.796 972.582 234.187C971.645 236.577 970.402 238.757 968.855 240.726C967.355 242.647 965.691 244.194 963.863 245.366C962.035 246.538 960.23 247.124 958.449 247.124ZM959.715 244.241C960.887 244.241 962.012 243.749 963.09 242.765C964.168 241.733 965.105 240.397 965.902 238.757C966.746 237.069 967.402 235.265 967.871 233.343C968.387 231.374 968.645 229.452 968.645 227.577C968.645 224.812 968.27 222.702 967.52 221.249C966.77 219.796 965.738 219.069 964.426 219.069C963.254 219.069 962.105 219.585 960.98 220.616C959.902 221.601 958.918 222.937 958.027 224.624C957.137 226.265 956.434 228.069 955.918 230.038C955.402 231.96 955.145 233.835 955.145 235.663C955.145 238.382 955.566 240.491 956.41 241.991C957.301 243.491 958.402 244.241 959.715 244.241Z" fill="black"/>
<path d="M984.816 247.194C982.473 247.194 981.301 245.647 981.301 242.554C981.301 241.476 981.371 240.304 981.512 239.038C981.699 237.726 981.957 236.343 982.285 234.89L984.395 225.116C984.582 224.272 984.676 223.616 984.676 223.147C984.723 222.679 984.746 222.397 984.746 222.304C984.746 221.132 984.512 220.546 984.043 220.546C983.855 220.546 983.598 220.663 983.27 220.897C982.988 221.085 982.66 221.343 982.285 221.671C981.676 222.187 981.16 222.679 980.738 223.147C980.363 223.616 980.176 223.851 980.176 223.851C980.082 223.851 979.895 223.64 979.613 223.218C979.379 222.749 979.262 222.421 979.262 222.233C979.637 221.577 980.316 220.78 981.301 219.843C982.285 218.905 983.34 218.062 984.465 217.312C985.59 216.562 986.551 216.187 987.348 216.187C988.098 216.187 988.684 216.538 989.105 217.241C989.527 217.897 989.738 218.765 989.738 219.843C989.738 221.108 989.598 222.351 989.316 223.569L986.855 235.171C986.715 235.827 986.598 236.483 986.504 237.14C986.41 237.749 986.363 238.358 986.363 238.968C986.363 240.983 986.809 241.991 987.699 241.991C988.355 241.991 989.246 241.499 990.371 240.515C991.496 239.53 992.832 238.03 994.379 236.015C995.738 234.233 996.98 232.077 998.105 229.546C999.277 227.015 1000.12 224.53 1000.64 222.093L1001.83 216.608C1002.39 216.421 1003.12 216.327 1004.01 216.327C1004.9 216.327 1005.7 216.421 1006.4 216.608L1002.04 239.319C1001.9 239.882 1001.83 240.468 1001.83 241.077C1001.83 242.249 1002.07 242.835 1002.54 242.835C1002.91 242.835 1003.36 242.624 1003.87 242.202C1004.43 241.78 1004.97 241.312 1005.49 240.796C1006.05 240.233 1006.47 239.788 1006.75 239.46L1007.18 238.968C1007.27 238.968 1007.43 239.202 1007.67 239.671C1007.95 240.093 1008.09 240.397 1008.09 240.585C1007.71 241.241 1006.99 242.108 1005.91 243.187C1004.88 244.218 1003.75 245.155 1002.54 245.999C1001.32 246.796 1000.21 247.194 999.23 247.194C998.48 247.194 997.895 246.866 997.473 246.21C997.051 245.507 996.84 244.616 996.84 243.538C996.84 243.163 996.863 242.671 996.91 242.062C997.004 241.452 997.145 240.702 997.332 239.812L998.598 233.343C998.363 233.812 998.012 234.397 997.543 235.101C997.074 235.804 996.465 236.671 995.715 237.702C994.777 239.015 993.629 240.421 992.27 241.921C990.91 243.374 989.551 244.616 988.191 245.647C986.879 246.679 985.754 247.194 984.816 247.194Z" fill="black"/>
<path d="M1019.27 263.155C1016.04 263.155 1013.39 262.546 1011.32 261.327C1009.31 260.108 1008.3 258.421 1008.3 256.265C1008.3 254.483 1008.84 252.983 1009.92 251.765C1011.04 250.546 1012.4 249.491 1014 248.601C1015.59 247.757 1017.07 247.007 1018.43 246.351L1017.16 245.507C1015.99 244.757 1015.4 243.913 1015.4 242.976C1015.4 242.413 1015.8 241.804 1016.6 241.147C1017.39 240.491 1018.33 239.882 1019.41 239.319C1020.54 238.757 1021.54 238.382 1022.43 238.194C1021.5 238.194 1020.49 237.96 1019.41 237.491C1018.24 237.022 1017.11 236.179 1016.04 234.96C1015 233.694 1014.49 232.218 1014.49 230.53C1014.49 227.905 1015.12 225.515 1016.39 223.358C1017.7 221.155 1019.36 219.397 1021.38 218.085C1023.39 216.772 1025.53 216.116 1027.78 216.116C1029.04 216.116 1030.12 216.28 1031.01 216.608C1031.95 216.89 1032.89 217.194 1033.82 217.522C1034.81 217.851 1035.98 218.015 1037.34 218.015H1040.36C1040.64 218.015 1040.79 218.202 1040.79 218.577C1040.79 218.905 1040.69 219.304 1040.5 219.772C1040.36 220.241 1040.2 220.569 1040.01 220.757H1036.07C1035.79 220.757 1035.65 220.897 1035.65 221.179C1035.93 222.866 1036.07 224.085 1036.07 224.835C1036.07 227.554 1035.49 229.921 1034.32 231.937C1033.14 233.952 1031.6 235.499 1029.68 236.577C1028.6 237.233 1027.47 237.819 1026.3 238.335C1025.18 238.851 1024.21 239.343 1023.42 239.812C1022.67 240.28 1022.29 240.796 1022.29 241.358C1022.29 241.78 1022.81 242.226 1023.84 242.694C1024.92 243.163 1026.14 243.632 1027.5 244.101C1028.9 244.569 1030.07 245.038 1031.01 245.507C1032.32 246.163 1033.43 247.077 1034.32 248.249C1035.25 249.421 1035.72 250.757 1035.72 252.257C1035.72 255.585 1034.22 258.233 1031.22 260.202C1028.27 262.171 1024.29 263.155 1019.27 263.155ZM1024.05 235.804C1025.36 235.804 1026.54 235.335 1027.57 234.397C1028.6 233.413 1029.39 232.171 1029.96 230.671C1030.57 229.171 1030.87 227.647 1030.87 226.101C1030.87 224.226 1030.5 222.538 1029.75 221.038C1029 219.538 1027.96 218.788 1026.65 218.788C1025.34 218.788 1024.14 219.304 1023.07 220.335C1022.04 221.366 1021.21 222.702 1020.61 224.343C1020.04 225.937 1019.76 227.624 1019.76 229.405C1019.76 231.233 1020.14 232.757 1020.89 233.976C1021.64 235.194 1022.69 235.804 1024.05 235.804ZM1022.71 260.132C1025.01 260.132 1027 259.64 1028.69 258.655C1030.38 257.718 1031.22 256.522 1031.22 255.069C1031.22 253.569 1030.73 252.351 1029.75 251.413C1028.81 250.476 1027.59 249.679 1026.09 249.022C1024.59 248.413 1023.02 247.851 1021.38 247.335C1020.49 247.71 1019.83 247.991 1019.41 248.179C1019.04 248.366 1018.38 248.718 1017.44 249.233C1014.82 250.64 1013.5 252.397 1013.5 254.507C1013.5 258.257 1016.57 260.132 1022.71 260.132Z" fill="black"/>
<path d="M1062.44 247.194C1061.69 247.194 1061.11 246.866 1060.68 246.21C1060.26 245.507 1060.05 244.616 1060.05 243.538C1060.05 243.163 1060.07 242.671 1060.12 242.062C1060.21 241.452 1060.36 240.702 1060.54 239.812L1063 228.21C1063.19 227.413 1063.31 226.71 1063.36 226.101C1063.45 225.444 1063.5 224.882 1063.5 224.413C1063.5 222.397 1063.05 221.39 1062.16 221.39C1061.41 221.39 1060.38 221.976 1059.07 223.147C1057.75 224.319 1056.39 225.866 1054.99 227.788C1053.58 229.71 1052.29 231.843 1051.12 234.187C1050 236.53 1049.18 238.897 1048.66 241.288L1047.46 246.772C1046.9 246.96 1046.18 247.054 1045.29 247.054C1044.39 247.054 1043.6 246.96 1042.89 246.772L1050.49 207.468C1050.91 205.405 1051.12 204.163 1051.12 203.741C1051.12 202.851 1049.69 202.405 1046.83 202.405C1046.69 202.405 1046.62 202.265 1046.62 201.983C1046.62 201.421 1046.81 200.952 1047.18 200.577C1050.37 200.296 1053.32 199.64 1056.04 198.608C1056.32 198.749 1056.46 199.194 1056.46 199.944C1056.46 200.132 1056.39 200.671 1056.25 201.562C1056.11 202.405 1055.88 203.624 1055.55 205.218L1050.7 230.038C1050.93 229.616 1051.31 229.054 1051.82 228.351C1052.34 227.601 1053 226.71 1053.79 225.679C1054.82 224.272 1056.04 222.843 1057.45 221.39C1058.86 219.937 1060.24 218.718 1061.6 217.733C1062.96 216.702 1064.11 216.187 1065.04 216.187C1067.39 216.187 1068.56 217.733 1068.56 220.827C1068.56 221.858 1068.46 223.03 1068.28 224.343C1068.14 225.608 1067.9 226.991 1067.57 228.491L1065.25 239.319C1065.11 239.882 1065.04 240.468 1065.04 241.077C1065.04 242.249 1065.28 242.835 1065.75 242.835C1066.54 242.835 1067.32 242.413 1068.07 241.569C1068.86 240.679 1069.5 239.976 1069.96 239.46L1070.39 238.968C1070.48 238.968 1070.64 239.202 1070.88 239.671C1071.16 240.093 1071.3 240.397 1071.3 240.585C1070.93 241.241 1070.2 242.108 1069.12 243.187C1068.09 244.218 1066.96 245.155 1065.75 245.999C1064.53 246.796 1063.43 247.194 1062.44 247.194Z" fill="black"/>
<path d="M1080.37 247.194C1079.62 247.194 1079.04 246.866 1078.61 246.21C1078.19 245.507 1077.98 244.616 1077.98 243.538C1077.98 243.163 1078 242.671 1078.05 242.062C1078.14 241.452 1078.29 240.702 1078.47 239.812L1082.27 220.194H1077.28C1077.14 220.194 1077.07 219.937 1077.07 219.421C1077.07 218.812 1077.35 218.085 1077.91 217.241H1082.83L1084.52 208.663C1084.57 208.194 1085.71 207.96 1087.96 207.96C1088.62 207.96 1089.04 207.983 1089.23 208.03L1087.47 217.241H1093.87C1094.11 217.241 1094.22 217.546 1094.22 218.155C1094.22 218.718 1094.01 219.397 1093.59 220.194H1086.91L1083.18 239.319C1083.04 239.882 1082.97 240.468 1082.97 241.077C1082.97 242.249 1083.21 242.835 1083.68 242.835C1084.47 242.835 1085.25 242.413 1086 241.569C1086.79 240.679 1087.43 239.976 1087.89 239.46L1088.32 238.968C1088.41 238.968 1088.57 239.202 1088.81 239.671C1089.09 240.093 1089.23 240.397 1089.23 240.585C1088.81 241.241 1088.08 242.108 1087.05 243.187C1086.02 244.218 1084.89 245.155 1083.68 245.999C1082.46 246.796 1081.36 247.194 1080.37 247.194Z" fill="black"/>
</svg>
