<svg width="1520" height="381" viewBox="0 0 1520 381" fill="none" xmlns="http://www.w3.org/2000/svg">
<path d="M76.9712 149.044C76.6679 149.651 76.3646 151.547 76.0614 154.733C75.9097 157.918 75.7581 162.013 75.6065 167.019C75.6065 172.024 75.6065 177.713 75.6065 184.083L75.8339 266.902C75.8339 276.458 74.0901 284.725 70.6024 291.703C67.1147 298.832 62.1106 304.292 55.5901 308.084C49.2212 312.028 41.7151 314 33.0717 314C23.8217 314 16.1639 312.18 10.0983 308.539C4.03278 305.051 1 300.576 1 295.115C1 291.475 2.13729 288.593 4.41188 286.469C6.53483 284.346 9.18851 283.284 12.3729 283.284C15.1024 283.284 17.7561 283.815 20.334 284.877C22.7602 286.09 25.3381 288.062 28.0676 290.792L44.2172 306.037L31.7069 301.486C35.3463 301.941 38.0758 301.562 39.8954 300.349C41.8667 299.135 43.2315 296.329 43.9897 291.93C44.7479 287.531 45.127 281.161 45.127 272.818L44.8995 183.401C44.8995 177.788 44.8237 172.555 44.6721 167.701C44.5204 162.696 44.293 158.525 43.9897 155.188C43.8381 151.699 43.6106 149.575 43.3073 148.817L27.3852 145.632L28.0676 134.255H90.8462L91.5286 145.632L76.9712 149.044Z" fill="black"/>
<path d="M215.002 247.79L230.014 250.976V260.759L191.346 271.225L185.205 267.812L185.432 251.886L184.75 251.658C180.352 258.636 175.576 263.565 170.42 266.447C165.416 269.178 160.184 270.543 154.725 270.543C143.807 270.543 134.936 267.13 128.113 260.304C121.289 253.327 117.877 243.012 117.877 229.361V210.021C117.877 206.684 117.801 203.423 117.65 200.238C117.498 197.052 117.27 193.867 116.967 190.681L101.5 187.496V177.257L142.443 167.019L148.811 170.887C148.508 175.437 148.205 180.898 147.902 187.269C147.598 193.639 147.447 200.162 147.447 206.836L147.219 225.948C147.219 233.835 148.963 239.599 152.451 243.24C155.938 246.88 160.715 248.7 166.781 248.7C169.813 248.7 172.922 247.866 176.106 246.198C179.443 244.529 182.248 241.799 184.522 238.007V215.937C184.522 212.296 184.522 209.111 184.522 206.381C184.522 203.499 184.371 200.844 184.068 198.417C183.916 195.839 183.688 193.26 183.385 190.681L167.236 187.496V177.257L208.406 167.019L214.547 170.887C214.244 173.465 214.016 176.347 213.865 179.533C213.865 182.718 213.789 186.434 213.637 190.681C213.637 194.777 213.637 199.479 213.637 204.788V222.99C213.637 226.63 213.713 230.574 213.865 234.821C214.168 238.917 214.547 243.24 215.002 247.79Z" fill="black"/>
<path d="M276.963 269.633C270.594 269.633 264.301 268.95 258.084 267.585C251.867 266.068 246.635 264.172 242.389 261.897L241.252 235.276H255.81L260.586 251.658C266.348 254.995 272.338 256.664 278.555 256.664C283.256 256.664 286.82 255.754 289.246 253.933C291.672 251.962 292.885 249.383 292.885 246.198C292.885 242.861 291.521 239.979 288.791 237.552C286.213 235.125 280.83 232.394 272.641 229.361C261.42 225.265 253.611 220.791 249.213 215.937C244.816 211.083 242.617 205.016 242.617 197.735C242.617 191.516 244.512 186.055 248.303 181.353C252.094 176.499 257.402 172.783 264.225 170.204C271.049 167.474 278.934 166.109 287.881 166.109C292.734 166.109 297.662 166.564 302.666 167.474C307.67 168.384 311.764 169.598 314.949 171.114L317.678 197.507H303.121L298.117 181.353C296.6 180.443 294.705 179.76 292.43 179.305C290.307 178.698 288.26 178.395 286.289 178.395C281.74 178.395 278.025 179.381 275.143 181.353C272.414 183.325 271.049 185.979 271.049 189.316C271.049 192.957 272.717 195.99 276.053 198.417C279.389 200.844 285.455 203.878 294.25 207.518C304.258 211.614 311.385 216.013 315.631 220.715C319.877 225.265 322 230.953 322 237.779C322 247.335 317.83 255.071 309.49 260.987C301.15 266.751 290.307 269.633 276.963 269.633Z" fill="black"/>
<path d="M412.5 248.473C410.225 254.995 406.055 260.228 399.99 264.172C394.076 267.964 387.404 269.86 379.973 269.86C369.51 269.86 360.867 266.827 354.043 260.759C347.371 254.54 344.035 245.287 344.035 233.001L344.717 182.263H328.795V175.21L367.691 144.266H374.742L374.287 176.347L373.832 230.271C373.832 236.642 375.348 241.268 378.381 244.15C381.414 246.88 385.66 248.245 391.119 248.245C394 248.245 396.805 247.714 399.535 246.653C402.264 245.439 404.615 243.922 406.586 242.102L412.5 248.473ZM362.687 182.263V167.929H406.131V182.263H362.687Z" fill="black"/>
<path d="M535.528 269.86C521.577 269.86 509.143 266.978 498.225 261.214C487.458 255.45 478.967 247.563 472.749 237.552C466.684 227.389 463.651 215.785 463.651 202.74C463.651 189.089 466.684 176.954 472.749 166.336C478.967 155.718 487.534 147.376 498.452 141.309C509.37 135.241 521.729 132.208 535.528 132.208C549.175 132.208 561.155 135.09 571.466 140.854C581.778 146.466 589.815 154.277 595.577 164.289C601.491 174.3 604.448 185.979 604.448 199.327C604.448 211.007 602.325 221.246 598.079 230.043C593.833 238.841 588.223 246.198 581.247 252.113C574.423 258.029 566.993 262.504 558.956 265.537C550.919 268.419 543.11 269.86 535.528 269.86ZM537.12 253.023C544.247 253.023 550.161 251.203 554.862 247.563C559.563 243.771 563.05 238.31 565.325 231.181C567.751 223.9 568.964 215.178 568.964 205.016C568.964 193.336 567.448 183.173 564.415 174.527C561.534 165.881 557.364 159.207 551.905 154.505C546.598 149.651 540.229 147.224 532.798 147.224C522.487 147.224 514.374 151.547 508.46 160.193C502.546 168.839 499.589 180.822 499.589 196.142C499.589 207.367 501.182 217.226 504.366 225.72C507.551 234.215 511.948 240.889 517.559 245.743C523.321 250.596 529.841 253.023 537.12 253.023Z" fill="black"/>
<path d="M618.778 267.812L618.095 257.346L632.198 253.478C632.35 252.872 632.501 251.506 632.653 249.383C632.804 247.259 632.956 244.605 633.108 241.42C633.259 238.083 633.335 234.518 633.335 230.726L633.563 213.434C633.563 208.732 633.411 204.636 633.108 201.148C632.804 197.659 632.274 194.019 631.516 190.226L616.958 187.041V176.802L656.991 166.564L663.132 170.432L661.768 183.856L662.45 184.083C667.151 178.016 672.306 173.541 677.917 170.659C683.679 167.626 689.745 166.109 696.114 166.109C702.634 166.109 708.397 167.701 713.401 170.887C718.556 174.072 722.651 178.774 725.683 184.993C728.716 191.061 730.233 198.417 730.233 207.063V230.498C730.233 235.656 730.308 240.509 730.46 245.06C730.612 249.459 730.915 252.265 731.37 253.478L745.472 257.346L744.79 267.812H687.698L687.015 257.346L699.981 253.478C700.284 252.113 700.511 250.217 700.663 247.79C700.815 245.212 700.89 242.405 700.89 239.372C701.042 236.338 701.118 233.456 701.118 230.726V211.614C701.118 205.85 700.208 201.223 698.388 197.735C696.72 194.094 694.446 191.44 691.565 189.771C688.835 188.103 685.651 187.269 682.011 187.269C678.22 187.269 674.657 188.103 671.321 189.771C668.136 191.44 665.255 193.867 662.677 197.052V230.498C662.677 235.656 662.753 240.509 662.905 245.06C663.208 249.459 663.511 252.265 663.815 253.478L677.69 257.346L677.007 267.812H618.778Z" fill="black"/>
<path d="M806.886 269.633C797.03 269.633 788.235 267.433 780.501 263.034C772.919 258.636 766.929 252.644 762.532 245.06C758.286 237.476 756.163 228.906 756.163 219.35C756.163 208.732 758.589 199.479 763.442 191.592C768.294 183.552 774.587 177.258 782.321 172.707C790.206 168.157 798.622 165.957 807.569 166.109C820.913 166.109 831.224 170.28 838.503 178.623C845.782 186.814 849.421 197.507 849.421 210.704V216.164H782.548V204.333H827.13L823.718 209.794V202.058C823.718 194.929 822.126 189.24 818.942 184.993C815.757 180.746 811.36 178.623 805.749 178.623C801.958 178.623 798.546 179.684 795.513 181.808C792.48 183.932 790.054 187.193 788.235 191.592C786.567 195.839 785.733 201.223 785.733 207.746V212.524C785.733 223.142 788.538 231.712 794.148 238.234C799.911 244.757 807.569 248.018 817.122 248.018C822.278 248.018 826.978 247.108 831.224 245.287C835.47 243.316 839.564 240.054 843.507 235.504L850.558 241.875C846.312 250.976 840.323 257.877 832.589 262.579C824.855 267.282 816.288 269.633 806.886 269.633Z" fill="black"/>
<path d="M1012.27 176.575L973.379 268.495H961.324L910.146 149.272L898.545 145.632L899.228 134.255H956.32L957.002 145.632L945.629 149.272L981.568 237.779H970.65L1002.49 156.553L1012.27 176.575ZM1045.71 268.495L993.851 149.272L982.478 145.632L983.16 134.255H1042.07L1042.75 145.632L1028.42 149.272L1065.05 237.779H1055.49L1088.7 149.272L1073.23 145.632L1073.92 134.255H1120.32L1121 145.632L1109.4 149.272L1057.77 268.495H1045.71Z" fill="black"/>
<path d="M1183.56 269.633C1172.94 269.633 1163.62 267.509 1155.58 263.262C1147.54 258.863 1141.25 252.872 1136.7 245.287C1132.15 237.552 1129.88 228.754 1129.88 218.895C1129.88 207.67 1132.46 198.114 1137.61 190.226C1142.77 182.339 1149.51 176.347 1157.85 172.252C1166.2 168.156 1175.07 166.109 1184.47 166.109C1194.48 166.109 1203.27 168.232 1210.85 172.479C1218.59 176.727 1224.58 182.718 1228.82 190.454C1233.22 198.038 1235.42 206.76 1235.42 216.619C1235.42 226.63 1233.07 235.656 1228.37 243.695C1223.82 251.582 1217.6 257.877 1209.72 262.579C1201.83 267.282 1193.11 269.633 1183.56 269.633ZM1185.83 255.071C1189.62 255.071 1192.81 253.858 1195.39 251.431C1198.12 249.004 1200.16 245.439 1201.53 240.737C1203.04 236.035 1203.8 230.422 1203.8 223.9C1203.8 210.855 1201.68 200.238 1197.43 192.047C1193.34 183.856 1187.8 179.76 1180.83 179.76C1175.07 179.76 1170.52 182.718 1167.18 188.634C1163.84 194.398 1162.18 202.285 1162.18 212.296C1162.18 220.336 1163.16 227.616 1165.13 234.139C1167.26 240.661 1170.06 245.818 1173.55 249.61C1177.19 253.251 1181.28 255.071 1185.83 255.071Z" fill="black"/>
<path d="M1247.93 268.495L1247.25 258.029L1261.35 254.161C1261.5 253.554 1261.65 252.189 1261.8 250.065C1261.96 247.79 1262.11 245.06 1262.26 241.875C1262.41 238.538 1262.49 235.049 1262.49 231.408L1262.71 214.344C1262.71 209.794 1262.56 205.774 1262.26 202.285C1261.96 198.645 1261.42 194.853 1260.67 190.909L1246.11 187.724V177.485L1285.46 167.246L1291.37 171.114L1290.46 189.089L1291.15 189.316C1295.54 180.822 1299.94 175.058 1304.34 172.024C1308.89 168.991 1313.51 167.474 1318.21 167.474C1322.31 167.474 1325.87 168.612 1328.9 170.887C1332.09 173.162 1333.68 176.727 1333.68 181.58C1333.68 186.434 1332.01 190.226 1328.68 192.957C1325.34 195.687 1321.47 197.052 1317.08 197.052C1313.44 197.052 1310.18 196.445 1307.3 195.232C1304.41 193.867 1301.23 191.516 1297.74 188.179L1304.11 188.861C1301.84 190.53 1299.64 192.653 1297.51 195.232C1295.39 197.811 1293.57 200.768 1292.06 204.105L1292.28 222.08C1292.43 227.692 1292.51 232.774 1292.51 237.324C1292.66 241.723 1292.81 245.439 1292.97 248.473C1293.12 251.355 1293.27 253.251 1293.42 254.161L1313.21 257.574L1312.53 268.495H1247.93Z" fill="black"/>
<path d="M1423.75 270.77L1417.61 267.357L1417.84 252.568L1417.16 252.341C1413.37 258.863 1409.12 263.489 1404.42 266.22C1399.72 268.798 1394.87 270.088 1389.86 270.088C1381.83 270.088 1374.4 268.04 1367.57 263.945C1360.75 259.849 1355.29 254.161 1351.19 246.88C1347.1 239.448 1345.05 230.878 1345.05 221.17C1345.05 212.676 1346.65 205.091 1349.83 198.417C1353.01 191.592 1357.26 185.828 1362.57 181.125C1367.88 176.272 1373.79 172.631 1380.31 170.204C1386.83 167.626 1393.5 166.336 1400.33 166.336C1403.21 166.336 1406.16 166.64 1409.2 167.246C1412.23 167.701 1414.73 168.46 1416.7 169.522C1416.7 166.64 1416.63 163.454 1416.48 159.966C1416.48 156.325 1416.4 152.761 1416.25 149.272C1416.25 145.632 1416.17 142.37 1416.02 139.488C1416.02 136.455 1415.94 134.179 1415.79 132.663L1398.96 130.16L1398.51 120.376L1441.5 109.228L1447.86 113.095C1447.41 122.5 1446.95 131.222 1446.5 139.261C1446.05 147.148 1445.82 155.491 1445.82 164.289L1445.59 217.074C1445.59 224.507 1445.82 230.574 1446.27 235.276C1446.73 239.979 1447.11 243.998 1447.41 247.335L1462.42 250.521V260.304L1423.75 270.77ZM1400.78 248.245C1403.21 248.245 1405.94 247.487 1408.97 245.97C1412.15 244.453 1414.88 241.95 1417.16 238.462V187.724C1415.03 184.842 1412.53 182.87 1409.65 181.808C1406.77 180.595 1403.89 179.988 1401.01 179.988C1393.88 179.988 1387.97 182.946 1383.27 188.861C1378.72 194.777 1376.44 202.892 1376.44 213.206C1376.44 224.431 1378.79 233.077 1383.49 239.144C1388.35 245.212 1394.11 248.245 1400.78 248.245Z" fill="black"/>
<path d="M1491.78 217.302L1478.36 142.901C1477.3 136.379 1477.38 130.615 1478.59 125.609C1479.96 120.604 1482.31 116.736 1485.64 114.006C1488.98 111.124 1493.15 109.683 1498.15 109.683C1503.31 109.683 1507.56 111.124 1510.89 114.006C1514.23 116.736 1516.5 120.604 1517.72 125.609C1519.08 130.615 1519.23 136.379 1518.17 142.901L1504.75 217.302H1491.78ZM1498.15 270.77C1494.21 270.77 1490.65 269.86 1487.46 268.04C1484.28 266.22 1481.7 263.793 1479.73 260.759C1477.91 257.574 1477 254.009 1477 250.065C1477 246.122 1477.91 242.557 1479.73 239.372C1481.7 236.186 1484.28 233.684 1487.46 231.863C1490.65 229.892 1494.21 228.906 1498.15 228.906C1502.1 228.906 1505.66 229.892 1508.84 231.863C1512.18 233.684 1514.76 236.186 1516.58 239.372C1518.55 242.557 1519.53 246.122 1519.53 250.065C1519.53 255.829 1517.49 260.759 1513.39 264.855C1509.3 268.798 1504.22 270.77 1498.15 270.77Z" fill="black"/>
</svg>
